<svg xmlns="http://www.w3.org/2000/svg" xmlns:xlink="http://www.w3.org/1999/xlink" viewBox="0 0 353.68 154.09"><defs><style>.cls-1{fill:#a9b5ca;}.cls-2{fill:url(#Nueva_muestra_de_degradado_1);}.cls-3{fill:url(#Nueva_muestra_de_degradado_1-2);}.cls-4{fill:url(#Nueva_muestra_de_degradado_1-3);}.cls-5{fill:url(#Nueva_muestra_de_degradado_1-4);}.cls-6{fill:url(#Nueva_muestra_de_degradado_1-5);}.cls-7{fill:url(#Nueva_muestra_de_degradado_1-6);}.cls-8{fill:url(#Nueva_muestra_de_degradado_1-7);}.cls-9{fill:url(#Nueva_muestra_de_degradado_1-8);}.cls-10{fill:url(#Nueva_muestra_de_degradado_1-9);}.cls-11{fill:url(#Nueva_muestra_de_degradado_1-10);}.cls-12{fill:url(#Nueva_muestra_de_degradado_1-11);}.cls-13{fill:url(#Nueva_muestra_de_degradado_1-12);}.cls-14{fill:url(#Nueva_muestra_de_degradado_1-13);}.cls-15{fill:url(#Nueva_muestra_de_degradado_1-14);}.cls-16{fill:url(#Nueva_muestra_de_degradado_1-15);}.cls-17{fill:url(#Nueva_muestra_de_degradado_1-16);}.cls-18{fill:url(#Nueva_muestra_de_degradado_1-17);}.cls-19{fill:url(#Nueva_muestra_de_degradado_1-18);}.cls-20{fill:#96c4e4;}.cls-21{fill:#bd1622;}</style><linearGradient id="Nueva_muestra_de_degradado_1" x1="433.11" y1="223" x2="438.38" y2="278.14" gradientUnits="userSpaceOnUse"><stop offset="0" stop-color="#fff"/><stop offset="0.65" stop-color="#cb6198"/><stop offset="0.84" stop-color="#994a74"/></linearGradient><linearGradient id="Nueva_muestra_de_degradado_1-2" x1="375.79" y1="229.67" x2="380.74" y2="281.42" xlink:href="#Nueva_muestra_de_degradado_1"/><linearGradient id="Nueva_muestra_de_degradado_1-3" x1="401.48" y1="229.06" x2="401.51" y2="229.4" xlink:href="#Nueva_muestra_de_degradado_1"/><linearGradient id="Nueva_muestra_de_degradado_1-4" x1="398.95" y1="227.84" x2="399.1" y2="229.4" xlink:href="#Nueva_muestra_de_degradado_1"/><linearGradient id="Nueva_muestra_de_degradado_1-5" x1="401.31" y1="229.09" x2="401.31" y2="229.1" xlink:href="#Nueva_muestra_de_degradado_1"/><linearGradient id="Nueva_muestra_de_degradado_1-6" x1="396.59" y1="228.02" x2="396.59" y2="228.06" xlink:href="#Nueva_muestra_de_degradado_1"/><linearGradient id="Nueva_muestra_de_degradado_1-7" x1="409.3" y1="225.31" x2="409.31" y2="225.32" xlink:href="#Nueva_muestra_de_degradado_1"/><linearGradient id="Nueva_muestra_de_degradado_1-8" x1="409.44" y1="225.26" x2="409.45" y2="225.3" xlink:href="#Nueva_muestra_de_degradado_1"/><linearGradient id="Nueva_muestra_de_degradado_1-9" x1="477.88" y1="261.02" x2="479.31" y2="275.95" xlink:href="#Nueva_muestra_de_degradado_1"/><linearGradient id="Nueva_muestra_de_degradado_1-10" x1="394.88" y1="227.83" x2="395.55" y2="227.83" xlink:href="#Nueva_muestra_de_degradado_1"/><linearGradient id="Nueva_muestra_de_degradado_1-11" x1="409.09" y1="291.38" x2="403.45" y2="236.29" xlink:href="#Nueva_muestra_de_degradado_1"/><linearGradient id="Nueva_muestra_de_degradado_1-12" x1="466.36" y1="284.33" x2="461.06" y2="232.61" xlink:href="#Nueva_muestra_de_degradado_1"/><linearGradient id="Nueva_muestra_de_degradado_1-13" x1="440.68" y1="285.12" x2="440.64" y2="284.77" xlink:href="#Nueva_muestra_de_degradado_1"/><linearGradient id="Nueva_muestra_de_degradado_1-14" x1="443.34" y1="286.38" x2="443.17" y2="284.75" xlink:href="#Nueva_muestra_de_degradado_1"/><linearGradient id="Nueva_muestra_de_degradado_1-15" x1="440.85" y1="285.1" x2="440.85" y2="285.06" xlink:href="#Nueva_muestra_de_degradado_1"/><linearGradient id="Nueva_muestra_de_degradado_1-16" x1="432.76" y1="288.96" x2="432.75" y2="288.92" xlink:href="#Nueva_muestra_de_degradado_1"/><linearGradient id="Nueva_muestra_de_degradado_1-17" x1="364.07" y1="253.68" x2="362.54" y2="238.76" xlink:href="#Nueva_muestra_de_degradado_1"/><linearGradient id="Nueva_muestra_de_degradado_1-18" x1="446.62" y1="286.3" x2="447.29" y2="286.3" xlink:href="#Nueva_muestra_de_degradado_1"/></defs><title>Logo_Radiewcare</title><g id="Capa_2" data-name="Capa 2"><circle class="cls-1" cx="178.16" cy="35.12" r="35.12"/><path class="cls-2" d="M401.42,229l-.06,0c12.35,5.23,30.54,27.44,45.08,37.46,12.9,8.89,24.59,8.61,29.24,8C448.84,269,419,223,409.43,225.29l-.06,0h-.09a0,0,0,0,1,0,0l-13.37,2.41c.39,0-.38.06.35.23l.23.06h0l.13,0h0c1.18.26,4.42.9,4.68,1Z" transform="translate(-244.1 -220.59)"/><path class="cls-3" d="M354.85,276.39l.71,7.44s8.7-3.75,31.86-41.41a54.1,54.1,0,0,1,13.73-13.22c-1.18-.3-3.49-.88-4.47-1.14h0l-.13,0h0l-.23-.06c-.49-.06-.26-.19-.72-.17C383.58,228.33,354.85,276.39,354.85,276.39Z" transform="translate(-244.1 -220.59)"/><path class="cls-4" d="M401.85,229.37l-.49-.3,0,0h0l-.14.1Z" transform="translate(-244.1 -220.59)"/><path class="cls-5" d="M401.15,229.2l.14-.1h0l0,0c-.26-.11-3.5-.75-4.68-1C397.66,228.32,400,228.9,401.15,229.2Z" transform="translate(-244.1 -220.59)"/><path class="cls-6" d="M401.29,229.1h0Z" transform="translate(-244.1 -220.59)"/><path class="cls-7" d="M396.53,228l.13,0Z" transform="translate(-244.1 -220.59)"/><path class="cls-8" d="M409.32,225.31h0Z" transform="translate(-244.1 -220.59)"/><path class="cls-9" d="M409.32,225.31h.05l.06,0,.14,0Z" transform="translate(-244.1 -220.59)"/><path class="cls-10" d="M482.57,271.53a19.71,19.71,0,0,1-9.35,2.85c-2.33.1-10.53-.68-11.21-.6,14.23,5.3,27.58,1,33.73-4.71,0,0-2-13.92-2.44-8.16C493,264.52,487,268.82,482.57,271.53Z" transform="translate(-244.1 -220.59)"/><path class="cls-11" d="M394.91,227.88l.64-.09S394.71,227.87,394.91,227.88Z" transform="translate(-244.1 -220.59)"/><path class="cls-12" d="M440.74,285.14l.06,0c-12.39-5.14-30.73-27.23-45.34-37.16-13-8.8-24.64-8.44-29.29-7.82,26.88,5.43,57.05,51.23,66.59,48.81h.06l.08,0h0l13.36-2.49c-.4,0,.38-.08-.36-.23l-.09,0-.06,0h0c-.91-.2-4.61-.9-4.91-1h0S440.76,285.14,440.74,285.14Z" transform="translate(-244.1 -220.59)"/><path class="cls-13" d="M487,237.47l-.76-7.43s-8.66,3.79-31.57,41.62A54.07,54.07,0,0,1,441,285l4.72,1.16h0l.06,0,.09,0c.49.06.26.18.72.16C458.58,285.72,487,237.47,487,237.47Z" transform="translate(-244.1 -220.59)"/><path class="cls-14" d="M440.31,284.81l.49.29h0l.06,0L441,285Z" transform="translate(-244.1 -220.59)"/><path class="cls-15" d="M441,285l-.13.09-.06,0c.3.13,4,.83,4.91,1Z" transform="translate(-244.1 -220.59)"/><path class="cls-16" d="M440.81,285.1l.06,0Z" transform="translate(-244.1 -220.59)"/><path class="cls-17" d="M432.87,288.91h-.11l-.12,0Z" transform="translate(-244.1 -220.59)"/><path class="cls-18" d="M359.3,243.2a19.79,19.79,0,0,1,9.33-2.92c2.34-.12,10.54.62,11.22.52-14.27-5.19-27.58-.76-33.69,4.95,0,0,2.11,13.9,2.49,8.14C348.88,250.28,354.87,245.94,359.3,243.2Z" transform="translate(-244.1 -220.59)"/><path class="cls-19" d="M447.26,286.25l-.64.09C446.59,286.4,447.46,286.25,447.26,286.25Z" transform="translate(-244.1 -220.59)"/><path class="cls-20" d="M251,362.83v8.65a1.26,1.26,0,0,0,.28.88,1.8,1.8,0,0,0,.94.49v.61H244.1v-.61a2,2,0,0,0,1-.5,1.26,1.26,0,0,0,.26-.87V349.42a1.32,1.32,0,0,0-.26-.9,2,2,0,0,0-1-.49v-.62h16.3a25.39,25.39,0,0,1,4.72.35,8.47,8.47,0,0,1,3.05,1.2,6.11,6.11,0,0,1,2.25,2.69,8.84,8.84,0,0,1,.7,3.51q0,6.38-7.08,7.46l5.06,7.2a15.42,15.42,0,0,0,2,2.43,2.49,2.49,0,0,0,1.51.6v.61h-9.41v-.61c.65-.1,1-.33,1-.69a4.86,4.86,0,0,0-.89-1.66L258,362.83Zm0-4.29h8.78a24.12,24.12,0,0,0,2.75-.11A4.54,4.54,0,0,0,264,358a3.48,3.48,0,0,0,0-5.65,4.27,4.27,0,0,0-1.46-.49,24.52,24.52,0,0,0-2.76-.1H251Z" transform="translate(-244.1 -220.59)"/><path class="cls-20" d="M299.79,366.82H288l-1.76,3.66a3.08,3.08,0,0,0-.36,1.21c0,.56.43.94,1.28,1.16v.61H278.5v-.61a2.36,2.36,0,0,0,1.17-.53,5.41,5.41,0,0,0,.91-1.49l9.58-20a3.86,3.86,0,0,0,.46-1.52q0-.89-1.11-1.26v-.62h9.24V348c-.75.21-1.13.59-1.13,1.12a2.83,2.83,0,0,0,.36,1.26l9.93,20.07a6.65,6.65,0,0,0,1.1,1.75,2.45,2.45,0,0,0,1.28.62v.61H300.7v-.61c.84-.14,1.27-.53,1.27-1.18a3.06,3.06,0,0,0-.39-1.19Zm-1.63-3.57L293.93,354l-4.29,9.28Z" transform="translate(-244.1 -220.59)"/><path class="cls-20" d="M319.59,371.46v-22a1.33,1.33,0,0,0-.27-.9,1.91,1.91,0,0,0-.95-.49v-.61H332.9a19.52,19.52,0,0,1,7.33,1.08,10.44,10.44,0,0,1,5.42,5.23,15.13,15.13,0,0,1,1.4,6.7q0,6.74-4.15,10.26a10.15,10.15,0,0,1-4.06,2.13,22.86,22.86,0,0,1-5.94.64H318.37v-.61a1.91,1.91,0,0,0,.95-.5A1.3,1.3,0,0,0,319.59,371.46Zm5.69-2.29h7.14a11,11,0,0,0,5.14-.94q3.69-2,3.69-7.8a9.39,9.39,0,0,0-2-6.43,6.15,6.15,0,0,0-2.67-1.77,13.55,13.55,0,0,0-4.17-.52h-7.14Z" transform="translate(-244.1 -220.59)"/><path class="cls-20" d="M356.17,371.46V349.4a1.3,1.3,0,0,0-.27-.88A1.86,1.86,0,0,0,355,348v-.62h8.13V348a1.79,1.79,0,0,0-1,.48,1.39,1.39,0,0,0-.26.89v22.06a1.34,1.34,0,0,0,.27.9,1.84,1.84,0,0,0,.95.49v.61H355v-.61a1.86,1.86,0,0,0,.95-.5A1.3,1.3,0,0,0,356.17,371.46Z" transform="translate(-244.1 -220.59)"/><path class="cls-20" d="M377.89,362v7.14h16.75a1.29,1.29,0,0,0,.88-.27,2,2,0,0,0,.5-.95h.61v6.73H396a2,2,0,0,0-.5-.95,1.29,1.29,0,0,0-.88-.27H371v-.61a2,2,0,0,0,1-.5,1.35,1.35,0,0,0,.26-.89v-22a1.38,1.38,0,0,0-.26-.9,2,2,0,0,0-1-.49v-.61h23.21a1.26,1.26,0,0,0,.87-.28,1.91,1.91,0,0,0,.5-.95h.61v6.74h-.61a2,2,0,0,0-.5-.95,1.26,1.26,0,0,0-.87-.27h-16.3v6.18h10.57a1.3,1.3,0,0,0,.88-.27,1.86,1.86,0,0,0,.49-.95h.61v6.58h-.61a2,2,0,0,0-.49-.94,1.26,1.26,0,0,0-.88-.28Z" transform="translate(-244.1 -220.59)"/><path class="cls-20" d="M427,355.11l-5.95,15.05a5.11,5.11,0,0,0-.52,1.45c0,.59.47,1,1.41,1.24v.61h-8.39v-.61c.86-.16,1.28-.6,1.28-1.3a7.74,7.74,0,0,0-.53-1.69l-7.47-19.22a7.07,7.07,0,0,0-1-1.94,2.31,2.31,0,0,0-1.31-.67v-.61h9.06V348c-.8.17-1.21.55-1.21,1.12a4.15,4.15,0,0,0,.31,1.26l5.15,13.78,5.58-13.85a4.31,4.31,0,0,0,.36-1.19c0-.58-.42-1-1.28-1.12v-.61H432V348c-.87.23-1.3.64-1.3,1.24a4,4,0,0,0,.33,1.14l5.31,13.78,5.14-13.55a4.81,4.81,0,0,0,.4-1.51c0-.56-.46-.93-1.38-1.1v-.61h9V348a2.61,2.61,0,0,0-1.32.68,7.93,7.93,0,0,0-.95,1.93l-7.47,19.22a6.68,6.68,0,0,0-.53,1.83c0,.62.45,1,1.35,1.16v.61H432v-.61c.9-.14,1.34-.56,1.34-1.28a6.46,6.46,0,0,0-.59-1.71Z" transform="translate(-244.1 -220.59)"/><path class="cls-21" d="M483.52,364.51l3.63,5.43-.5.35a1.43,1.43,0,0,0-.88-.5,6.62,6.62,0,0,0-1.92.92,26.83,26.83,0,0,1-5.53,2.55,19,19,0,0,1-5.33.66A16.53,16.53,0,0,1,462.88,371a12.19,12.19,0,0,1-3.67-4.22,13.22,13.22,0,0,1-1.54-6.35,12.88,12.88,0,0,1,2.76-8.23Q464.6,347,473,347a18.68,18.68,0,0,1,5.3.65,27,27,0,0,1,5.54,2.55,6.9,6.9,0,0,0,1.92.9,1.49,1.49,0,0,0,.88-.5l.5.35-3.63,5.44L483,356c0-.2,0-.37,0-.51a1.48,1.48,0,0,0-.48-1,8.5,8.5,0,0,0-1.7-1.17,14.45,14.45,0,0,0-7.16-1.9,10.71,10.71,0,0,0-7.11,2.23,9,9,0,0,0,0,13.65,10.66,10.66,0,0,0,7.11,2.23,14.26,14.26,0,0,0,7.16-1.91,7.74,7.74,0,0,0,1.7-1.17,1.46,1.46,0,0,0,.48-1c0-.14,0-.3,0-.5Z" transform="translate(-244.1 -220.59)"/><path class="cls-21" d="M517.43,366.82H505.59l-1.75,3.66a3,3,0,0,0-.37,1.21c0,.56.43.94,1.28,1.16v.61h-8.62v-.61a2.36,2.36,0,0,0,1.17-.53,5.18,5.18,0,0,0,.91-1.49l9.58-20a3.7,3.7,0,0,0,.46-1.52q0-.89-1.11-1.26v-.62h9.24V348c-.75.21-1.13.59-1.13,1.12a2.86,2.86,0,0,0,.37,1.26l9.92,20.07a6.61,6.61,0,0,0,1.11,1.75,2.38,2.38,0,0,0,1.27.62v.61h-9.58v-.61c.84-.14,1.26-.53,1.26-1.18a3.18,3.18,0,0,0-.38-1.19Zm-1.64-3.57L511.57,354l-4.29,9.28Z" transform="translate(-244.1 -220.59)"/><path class="cls-21" d="M542.74,362.83v8.65a1.3,1.3,0,0,0,.27.88,1.84,1.84,0,0,0,1,.49v.61h-8.13v-.61a1.91,1.91,0,0,0,.95-.5,1.26,1.26,0,0,0,.27-.87V349.42a1.33,1.33,0,0,0-.27-.9,1.91,1.91,0,0,0-.95-.49v-.61h16.29a25.65,25.65,0,0,1,4.73.34,8.49,8.49,0,0,1,3,1.2,6.11,6.11,0,0,1,2.25,2.69,8.84,8.84,0,0,1,.71,3.51q0,6.38-7.08,7.46l5.05,7.2a16,16,0,0,0,2,2.43,2.49,2.49,0,0,0,1.52.6v.61h-9.41v-.61c.64-.1,1-.33,1-.69a5,5,0,0,0-.9-1.66l-5.27-7.67Zm0-4.29h8.77a24,24,0,0,0,2.75-.11,4.54,4.54,0,0,0,1.47-.48,3.48,3.48,0,0,0,0-5.65,4.27,4.27,0,0,0-1.46-.49,24.4,24.4,0,0,0-2.76-.1h-8.77Z" transform="translate(-244.1 -220.59)"/><path class="cls-21" d="M579.05,362v7.14H595.8a1.29,1.29,0,0,0,.88-.27,2,2,0,0,0,.5-.95h.61v6.73h-.61a2,2,0,0,0-.5-.95,1.29,1.29,0,0,0-.88-.27H572.14v-.61a1.86,1.86,0,0,0,1-.5,1.3,1.3,0,0,0,.27-.89v-22a1.33,1.33,0,0,0-.27-.9,1.86,1.86,0,0,0-1-.49v-.62h23.2a1.29,1.29,0,0,0,.88-.27,2,2,0,0,0,.5-.95h.61v6.74h-.61a2,2,0,0,0-.5-.95,1.29,1.29,0,0,0-.88-.27H579.05v6.18h10.57a1.3,1.3,0,0,0,.88-.27,1.86,1.86,0,0,0,.49-.95h.61v6.58H591a2,2,0,0,0-.49-.94,1.26,1.26,0,0,0-.88-.28Z" transform="translate(-244.1 -220.59)"/></g></svg>