<svg id="Capa_1" data-name="Capa 1" xmlns="http://www.w3.org/2000/svg" xmlns:xlink="http://www.w3.org/1999/xlink" viewBox="0 0 571.36 70.24"><defs><style>.cls-1{fill:#97c5e4;}.cls-2{fill:#be1622;}.cls-3{fill:#aab6cb;}.cls-4{fill:url(#Nueva_muestra_de_degradado_1);}.cls-5{fill:url(#Nueva_muestra_de_degradado_1-2);}.cls-6{fill:url(#Nueva_muestra_de_degradado_1-3);}.cls-7{fill:url(#Nueva_muestra_de_degradado_1-4);}.cls-8{fill:url(#Nueva_muestra_de_degradado_1-5);}.cls-9{fill:url(#Nueva_muestra_de_degradado_1-6);}.cls-10{fill:url(#Nueva_muestra_de_degradado_1-7);}.cls-11{fill:url(#Nueva_muestra_de_degradado_1-8);}.cls-12{fill:url(#Nueva_muestra_de_degradado_1-9);}.cls-13{fill:url(#Nueva_muestra_de_degradado_1-10);}.cls-14{fill:url(#Nueva_muestra_de_degradado_1-11);}.cls-15{fill:url(#Nueva_muestra_de_degradado_1-12);}.cls-16{fill:url(#Nueva_muestra_de_degradado_1-13);}.cls-17{fill:url(#Nueva_muestra_de_degradado_1-14);}.cls-18{fill:url(#Nueva_muestra_de_degradado_1-15);}.cls-19{fill:url(#Nueva_muestra_de_degradado_1-16);}.cls-20{fill:url(#Nueva_muestra_de_degradado_1-17);}.cls-21{fill:url(#Nueva_muestra_de_degradado_1-18);}.cls-22{fill:url(#Nueva_muestra_de_degradado_1-19);}.cls-23{fill:url(#Nueva_muestra_de_degradado_1-20);}</style><linearGradient id="Nueva_muestra_de_degradado_1" x1="210.41" y1="247.99" x2="215.35" y2="299.74" gradientUnits="userSpaceOnUse"><stop offset="0" stop-color="#fff"/><stop offset="0.65" stop-color="#cc6199"/><stop offset="0.84" stop-color="#9a4b74"/></linearGradient><linearGradient id="Nueva_muestra_de_degradado_1-2" x1="236.09" y1="247.37" x2="236.12" y2="247.72" xlink:href="#Nueva_muestra_de_degradado_1"/><linearGradient id="Nueva_muestra_de_degradado_1-3" x1="233.56" y1="246.16" x2="233.71" y2="247.72" xlink:href="#Nueva_muestra_de_degradado_1"/><linearGradient id="Nueva_muestra_de_degradado_1-4" x1="235.9" y1="247.41" x2="235.91" y2="247.44" xlink:href="#Nueva_muestra_de_degradado_1"/><linearGradient id="Nueva_muestra_de_degradado_1-5" x1="235.95" y1="247.39" x2="235.95" y2="247.41" xlink:href="#Nueva_muestra_de_degradado_1"/><linearGradient id="Nueva_muestra_de_degradado_1-6" x1="231.2" y1="246.34" x2="231.2" y2="246.38" xlink:href="#Nueva_muestra_de_degradado_1"/><linearGradient id="Nueva_muestra_de_degradado_1-7" x1="267.72" y1="241.32" x2="272.99" y2="296.45" xlink:href="#Nueva_muestra_de_degradado_1"/><linearGradient id="Nueva_muestra_de_degradado_1-8" x1="244.03" y1="243.58" x2="244.04" y2="243.62" xlink:href="#Nueva_muestra_de_degradado_1"/><linearGradient id="Nueva_muestra_de_degradado_1-9" x1="312.49" y1="279.34" x2="313.91" y2="294.27" xlink:href="#Nueva_muestra_de_degradado_1"/><linearGradient id="Nueva_muestra_de_degradado_1-10" x1="229.49" y1="246.15" x2="230.16" y2="246.15" xlink:href="#Nueva_muestra_de_degradado_1"/><linearGradient id="Nueva_muestra_de_degradado_1-11" x1="300.96" y1="302.65" x2="295.67" y2="250.93" xlink:href="#Nueva_muestra_de_degradado_1"/><linearGradient id="Nueva_muestra_de_degradado_1-12" x1="275.28" y1="303.43" x2="275.25" y2="303.09" xlink:href="#Nueva_muestra_de_degradado_1"/><linearGradient id="Nueva_muestra_de_degradado_1-13" x1="277.93" y1="304.69" x2="277.76" y2="303.07" xlink:href="#Nueva_muestra_de_degradado_1"/><linearGradient id="Nueva_muestra_de_degradado_1-14" x1="275.48" y1="303.38" x2="275.48" y2="303.37" xlink:href="#Nueva_muestra_de_degradado_1"/><linearGradient id="Nueva_muestra_de_degradado_1-15" x1="275.46" y1="303.4" x2="275.46" y2="303.38" xlink:href="#Nueva_muestra_de_degradado_1"/><linearGradient id="Nueva_muestra_de_degradado_1-16" x1="275.44" y1="303.42" x2="275.44" y2="303.39" xlink:href="#Nueva_muestra_de_degradado_1"/><linearGradient id="Nueva_muestra_de_degradado_1-17" x1="243.7" y1="309.7" x2="238.06" y2="254.61" xlink:href="#Nueva_muestra_de_degradado_1"/><linearGradient id="Nueva_muestra_de_degradado_1-18" x1="267.35" y1="307.29" x2="267.34" y2="307.24" xlink:href="#Nueva_muestra_de_degradado_1"/><linearGradient id="Nueva_muestra_de_degradado_1-19" x1="198.68" y1="271.99" x2="197.15" y2="257.08" xlink:href="#Nueva_muestra_de_degradado_1"/><linearGradient id="Nueva_muestra_de_degradado_1-20" x1="281.23" y1="304.62" x2="281.9" y2="304.62" xlink:href="#Nueva_muestra_de_degradado_1"/></defs><title>Logo_Microsound_horizontal</title><path class="cls-1" d="M386.05,290.9a1.21,1.21,0,0,0,.75-.23.85.85,0,0,0,.31-.72V265.8a.69.69,0,0,0-.31-.66,1.42,1.42,0,0,0-.75-.19V264H396V265a1.14,1.14,0,0,0-.56.16.52.52,0,0,0-.29.48,1.65,1.65,0,0,0,.21.68c.14.29.3.59.48.91L403.38,281,411,267.33c.25-.46.44-.82.56-1.08a1.81,1.81,0,0,0,.18-.72c0-.39-.23-.58-.68-.58V264h9.8V265a1.42,1.42,0,0,0-.75.19.69.69,0,0,0-.31.66V290a.85.85,0,0,0,.31.72,1.21,1.21,0,0,0,.75.23v1h-8.32v-1c.95,0,1.43-.31,1.43-.95V272.37h-.11l-10.64,19.49h-.16l-10.44-19.55h-.1V290c0,.64.49.95,1.48.95v1h-7.95Z" transform="translate(-180.76 -238.91)"/><path class="cls-1" d="M429.91,290.9c.92,0,1.38-.31,1.38-.95V265.9c0-.63-.46-.95-1.38-.95V264h8.8V265c-.92,0-1.38.32-1.38.95V290c0,.64.46.95,1.38.95v1h-8.8Z" transform="translate(-180.76 -238.91)"/><path class="cls-1" d="M477.11,288.05a1.23,1.23,0,0,1-.29,0,1.36,1.36,0,0,0-.29,0,4.69,4.69,0,0,0-1.51.64c-.8.42-1.81.9-3,1.43a27,27,0,0,1-4.16,1.38A20.51,20.51,0,0,1,463,292a23.71,23.71,0,0,1-6.4-.85,15.93,15.93,0,0,1-5.43-2.62,12.83,12.83,0,0,1-3.74-4.43,14.53,14.53,0,0,1,0-12.36,13,13,0,0,1,3.74-4.48,16.46,16.46,0,0,1,5.43-2.7,22.6,22.6,0,0,1,6.4-.9,26.1,26.1,0,0,1,4.9.42q2.2.43,3.84.9a21.45,21.45,0,0,1,2.6.9,4.47,4.47,0,0,0,1.17.43.55.55,0,0,0,.45-.27l.29-.42.79.63-4.13,6.41-.53-.37a1.63,1.63,0,0,0,0-.31,2.37,2.37,0,0,0-.08-.38,2.11,2.11,0,0,0-1.05-1.19,11.08,11.08,0,0,0-2.36-1.08,23.87,23.87,0,0,0-3-.8,14.67,14.67,0,0,0-2.89-.32,14.36,14.36,0,0,0-4.26.64,10.61,10.61,0,0,0-3.55,1.85,9.18,9.18,0,0,0-2.41,3,9.56,9.56,0,0,0,0,8.1,9.14,9.14,0,0,0,2.41,3,10.63,10.63,0,0,0,3.55,1.86,14.35,14.35,0,0,0,4.26.63,17.14,17.14,0,0,0,3.55-.39,21.18,21.18,0,0,0,3.39-1,11.39,11.39,0,0,0,2.57-1.38c.69-.51,1-1,1-1.45a1,1,0,0,0-.22-.64L474,282l3.49,5.61Z" transform="translate(-180.76 -238.91)"/><path class="cls-1" d="M503.75,264a21.71,21.71,0,0,1,4.61.45,10.25,10.25,0,0,1,3.55,1.43,6.55,6.55,0,0,1,2.28,2.54,8.4,8.4,0,0,1,.79,3.84,6.82,6.82,0,0,1-2.07,5.35,11,11,0,0,1-5.56,2.49l7,10.06a1.4,1.4,0,0,0,.87.64,4.61,4.61,0,0,0,.93.1v1h-9.91v-1a2,2,0,0,0,.82-.15c.23-.11.35-.25.35-.43a1.23,1.23,0,0,0-.21-.61c-.15-.23-.36-.53-.64-.92l-5.83-8.27h-7.57V290a.82.82,0,0,0,.34.72,2.35,2.35,0,0,0,1.25.23v1h-9.16v-1c1,0,1.53-.31,1.53-.95V265.9c0-.63-.51-.95-1.53-.95V264Zm-1.38,12.39a14.24,14.24,0,0,0,3.18-.29,5.53,5.53,0,0,0,2-.82,3,3,0,0,0,1.06-1.24,4,4,0,0,0,0-3.13,3,3,0,0,0-1.06-1.25,5.72,5.72,0,0,0-2-.82,14.86,14.86,0,0,0-3.18-.29h-9.16v7.84Z" transform="translate(-180.76 -238.91)"/><path class="cls-1" d="M540.25,263.68a21.34,21.34,0,0,1,5.93.87,18.56,18.56,0,0,1,5.51,2.63,14.16,14.16,0,0,1,4.08,4.42,13.4,13.4,0,0,1,0,12.66,14.27,14.27,0,0,1-4.08,4.42,17,17,0,0,1-5.51,2.54,22.42,22.42,0,0,1-11.87,0,17,17,0,0,1-5.51-2.54,14.12,14.12,0,0,1-4.07-4.42,13.4,13.4,0,0,1,0-12.66,14,14,0,0,1,4.07-4.42,18.56,18.56,0,0,1,5.51-2.63A21.41,21.41,0,0,1,540.25,263.68Zm0,4.87a13.1,13.1,0,0,0-4,.64,12.15,12.15,0,0,0-3.63,1.83A9.35,9.35,0,0,0,530,274a8.31,8.31,0,0,0,0,7.94,9.35,9.35,0,0,0,2.62,2.94,12.39,12.39,0,0,0,3.63,1.83,13.17,13.17,0,0,0,8,0,12.39,12.39,0,0,0,3.63-1.83,9.35,9.35,0,0,0,2.62-2.94,8.31,8.31,0,0,0,0-7.94A9.35,9.35,0,0,0,547.9,271a12.15,12.15,0,0,0-3.63-1.83A13.08,13.08,0,0,0,540.25,268.55Z" transform="translate(-180.76 -238.91)"/><path class="cls-2" d="M567.47,283.12l.53.26a1.67,1.67,0,0,0,.21.85,3.83,3.83,0,0,0,1.46,1.25,15.25,15.25,0,0,0,2.49,1.08,21.11,21.11,0,0,0,2.94.77,15.24,15.24,0,0,0,2.75.29c.6,0,1.38,0,2.33-.13a13.46,13.46,0,0,0,2.81-.56,8.05,8.05,0,0,0,2.39-1.16,2.33,2.33,0,0,0,1-2,2,2,0,0,0-.92-1.8,6.82,6.82,0,0,0-2.44-.85,27.11,27.11,0,0,0-3.44-.35c-1.29-.05-2.61-.13-4-.23a39.1,39.1,0,0,1-4-.53,11.07,11.07,0,0,1-3.44-1.25,6.87,6.87,0,0,1-2.44-2.38,8.09,8.09,0,0,1-.16-7.18,8,8,0,0,1,2.36-2.81,13,13,0,0,1,4-2,19.13,19.13,0,0,1,5.72-.77,24.74,24.74,0,0,1,4.87.42c1.38.29,2.57.59,3.58.9s1.85.62,2.54.9a4.62,4.62,0,0,0,1.72.43,1.48,1.48,0,0,0,1.06-.32l.64.42-3.66,6.63-.53-.22a3,3,0,0,0-.42-1.22,4.66,4.66,0,0,0-1.41-1.24,12,12,0,0,0-2.3-1.09,19.23,19.23,0,0,0-2.86-.76,16,16,0,0,0-3.07-.3,16.85,16.85,0,0,0-2.41.19,11.15,11.15,0,0,0-2.26.56,4.74,4.74,0,0,0-1.66,1,1.93,1.93,0,0,0-.67,1.51,2.15,2.15,0,0,0,.93,1.9,6.8,6.8,0,0,0,2.44,1,23,23,0,0,0,3.44.42c1.29.07,2.61.16,3.95.26a34,34,0,0,1,3.94.56,11.41,11.41,0,0,1,3.45,1.27,7,7,0,0,1,2.43,2.36,7.2,7.2,0,0,1,.93,3.87,6.82,6.82,0,0,1-1.46,4.5,10.34,10.34,0,0,1-3.62,2.75,16.5,16.5,0,0,1-4.69,1.35A34.72,34.72,0,0,1,578,292a31,31,0,0,1-5.06-.35,19.45,19.45,0,0,1-3.39-.84,22.13,22.13,0,0,1-2.14-.91,3.23,3.23,0,0,0-1.38-.39.88.88,0,0,0-.69.42l-.74-.42Z" transform="translate(-180.76 -238.91)"/><path class="cls-2" d="M616.79,263.68a21.34,21.34,0,0,1,5.93.87,18.56,18.56,0,0,1,5.51,2.63,14.16,14.16,0,0,1,4.08,4.42,13.4,13.4,0,0,1,0,12.66,14.27,14.27,0,0,1-4.08,4.42,17,17,0,0,1-5.51,2.54,22.42,22.42,0,0,1-11.87,0,16.85,16.85,0,0,1-5.5-2.54,14.15,14.15,0,0,1-4.08-4.42,13.4,13.4,0,0,1,0-12.66,14,14,0,0,1,4.08-4.42,18.38,18.38,0,0,1,5.5-2.63A21.41,21.41,0,0,1,616.79,263.68Zm0,4.87a13.1,13.1,0,0,0-4,.64,12.15,12.15,0,0,0-3.63,1.83,9.48,9.48,0,0,0-2.62,2.94,8.31,8.31,0,0,0,0,7.94,9.48,9.48,0,0,0,2.62,2.94,12.39,12.39,0,0,0,3.63,1.83,13.17,13.17,0,0,0,8,0,12.39,12.39,0,0,0,3.63-1.83,9.35,9.35,0,0,0,2.62-2.94,8.31,8.31,0,0,0,0-7.94,9.35,9.35,0,0,0-2.62-2.94,12.15,12.15,0,0,0-3.63-1.83A13.08,13.08,0,0,0,616.79,268.55Z" transform="translate(-180.76 -238.91)"/><path class="cls-2" d="M649.58,265c-.78,0-1.17.32-1.17.95v15.89c0,2.23.71,3.76,2.15,4.59a16.5,16.5,0,0,0,12.55,0q2.14-1.25,2.14-4.59V265.9c0-.63-.53-.95-1.58-.95V264h8.47V265c-.85,0-1.27.32-1.27.95v15.63a12.8,12.8,0,0,1-.9,5.16,7.5,7.5,0,0,1-2.7,3.26,11,11,0,0,1-4.48,1.64,44.48,44.48,0,0,1-12.34,0A11,11,0,0,1,646,290a7.5,7.5,0,0,1-2.7-3.26,12.8,12.8,0,0,1-.9-5.16V265.9c0-.63-.49-.95-1.48-.95V264h8.69Z" transform="translate(-180.76 -238.91)"/><path class="cls-2" d="M680.46,290.9c.67,0,1-.31,1-.95V265.9c0-.63-.33-.95-1-.95V264h9V265c-.28,0-.42.18-.42.53s.35.78,1.06,1.48l15.2,15.79V265.9c0-.63-.46-.95-1.38-.95V264h8V265c-.67,0-1,.32-1,.95V290c0,.64.33.95,1,.95v1h-8.58v-1c.46,0,.69-.15.69-.47s-.28-.65-.85-1.22l-16.15-16.84V290c0,.64.4.95,1.21.95v1h-7.83Z" transform="translate(-180.76 -238.91)"/><path class="cls-2" d="M738.35,264a17.07,17.07,0,0,1,5.43.84,12.12,12.12,0,0,1,4.37,2.57,11.81,11.81,0,0,1,2.91,4.35,18.49,18.49,0,0,1,0,12.34,11.68,11.68,0,0,1-2.91,4.34,11.85,11.85,0,0,1-4.37,2.57,16.79,16.79,0,0,1-5.43.85H720.77v-1c.81,0,1.21-.31,1.21-.95V265.9c0-.63-.4-.95-1.21-.95V264Zm-2.12,23.3a19.92,19.92,0,0,0,4.35-.42,6.82,6.82,0,0,0,3.07-1.51,6.66,6.66,0,0,0,1.83-2.89,17.31,17.31,0,0,0,0-9.11,6.62,6.62,0,0,0-1.83-2.88,6.72,6.72,0,0,0-3.07-1.51,19.28,19.28,0,0,0-4.35-.43H728V287.3Z" transform="translate(-180.76 -238.91)"/><circle class="cls-3" cx="76.11" cy="35.12" r="35.12"/><path class="cls-4" d="M189.46,294.71l.71,7.43s8.69-3.74,31.86-41.4a54.1,54.1,0,0,1,13.73-13.22c-1.17-.3-3.49-.88-4.47-1.14h0l-.13,0h0l-.23-.06c-.48-.06-.25-.19-.71-.17C218.2,246.65,189.46,294.71,189.46,294.71Z" transform="translate(-180.76 -238.91)"/><path class="cls-5" d="M236.45,247.69l-.48-.3h0l0,0-.05,0-.12.08Z" transform="translate(-180.76 -238.91)"/><path class="cls-6" d="M235.76,247.52l.12-.08h0l0,0,0,0c-.29-.12-3.49-.75-4.67-1C232.27,246.64,234.59,247.22,235.76,247.52Z" transform="translate(-180.76 -238.91)"/><path class="cls-7" d="M235.88,247.44l.05,0,0,0Z" transform="translate(-180.76 -238.91)"/><path class="cls-8" d="M235.93,247.41l0,0Z" transform="translate(-180.76 -238.91)"/><path class="cls-9" d="M231.13,246.34l.13,0Z" transform="translate(-180.76 -238.91)"/><path class="cls-10" d="M230.87,246.28l.23.06h0l.13,0h0c1.18.26,4.38.89,4.67,1h0a.13.13,0,0,1,.07,0l-.07,0c12.36,5.23,30.54,27.44,45.08,37.46,12.9,8.89,24.59,8.61,29.24,8-26.84-5.6-56.7-51.6-66.26-49.26l-.06,0-.08,0h0l-13.36,2.41C230.91,246.06,230.15,246.11,230.87,246.28Z" transform="translate(-180.76 -238.91)"/><path class="cls-11" d="M243.92,243.63H244l.06,0a.24.24,0,0,0,.12,0Z" transform="translate(-180.76 -238.91)"/><path class="cls-12" d="M317.17,289.85a19.75,19.75,0,0,1-9.34,2.85c-2.34.1-10.54-.68-11.21-.6,14.23,5.3,27.58,1,33.72-4.72,0,0-2-13.91-2.43-8.15C327.65,282.84,321.63,287.14,317.17,289.85Z" transform="translate(-180.76 -238.91)"/><path class="cls-13" d="M229.51,246.2l.65-.09C230.19,246.05,229.32,246.19,229.51,246.2Z" transform="translate(-180.76 -238.91)"/><path class="cls-14" d="M321.59,255.78l-.76-7.42s-8.67,3.79-31.57,41.62a54.21,54.21,0,0,1-13.66,13.31l4.69,1.15h0l.19.05c.49.06.25.18.72.16C293.19,304,321.59,255.78,321.59,255.78Z" transform="translate(-180.76 -238.91)"/><path class="cls-15" d="M275.6,303.29l-.68-.16.49.29,0,0,0,0h0Z" transform="translate(-180.76 -238.91)"/><path class="cls-16" d="M275.6,303.29l-.1.08h0l-.06,0c.27.11,3.92.81,4.88,1Z" transform="translate(-180.76 -238.91)"/><path class="cls-17" d="M275.5,303.37h0Z" transform="translate(-180.76 -238.91)"/><path class="cls-18" d="M275.47,303.38l0,0s0,0,0,0Z" transform="translate(-180.76 -238.91)"/><path class="cls-19" d="M275.47,303.39s0,0,0,0l0,0Z" transform="translate(-180.76 -238.91)"/><path class="cls-20" d="M275.34,303.46l0,0Zm.07,0c-12.39-5.14-30.73-27.23-45.34-37.16-13-8.8-24.64-8.44-29.29-7.82,26.87,5.43,57,51.22,66.58,48.81h.06l.09,0a0,0,0,0,1,0,0l13.36-2.49c-.39,0,.38-.08-.35-.23l-.19-.05h0C279.33,304.23,275.68,303.53,275.41,303.42Z" transform="translate(-180.76 -238.91)"/><path class="cls-21" d="M267.47,307.23h-.11l-.14.05A1.22,1.22,0,0,0,267.47,307.23Z" transform="translate(-180.76 -238.91)"/><path class="cls-22" d="M214.46,259.12c-14.27-5.19-27.59-.77-33.7,4.95,0,0,2.11,13.9,2.49,8.14.24-3.61,6.23-7.95,10.67-10.69a19.71,19.71,0,0,1,9.31-2.92C205.58,258.48,213.78,259.22,214.46,259.12Z" transform="translate(-180.76 -238.91)"/><path class="cls-23" d="M281.87,304.57l-.64.09S282.07,304.57,281.87,304.57Z" transform="translate(-180.76 -238.91)"/></svg>