<svg id="Capa_1" data-name="Capa 1" xmlns="http://www.w3.org/2000/svg" xmlns:xlink="http://www.w3.org/1999/xlink" viewBox="0 0 366.07 153.24"><defs><style>.cls-1{fill:#a9b5ca;}.cls-2{fill:url(#Nueva_muestra_de_degradado_1);}.cls-3{fill:url(#Nueva_muestra_de_degradado_1-2);}.cls-4{fill:url(#Nueva_muestra_de_degradado_1-3);}.cls-5{fill:url(#Nueva_muestra_de_degradado_1-4);}.cls-6{fill:url(#Nueva_muestra_de_degradado_1-5);}.cls-7{fill:url(#Nueva_muestra_de_degradado_1-6);}.cls-8{fill:url(#Nueva_muestra_de_degradado_1-7);}.cls-9{fill:url(#Nueva_muestra_de_degradado_1-8);}.cls-10{fill:url(#Nueva_muestra_de_degradado_1-9);}.cls-11{fill:url(#Nueva_muestra_de_degradado_1-10);}.cls-12{fill:url(#Nueva_muestra_de_degradado_1-11);}.cls-13{fill:url(#Nueva_muestra_de_degradado_1-12);}.cls-14{fill:url(#Nueva_muestra_de_degradado_1-13);}.cls-15{fill:url(#Nueva_muestra_de_degradado_1-14);}.cls-16{fill:url(#Nueva_muestra_de_degradado_1-15);}.cls-17{fill:url(#Nueva_muestra_de_degradado_1-16);}.cls-18{fill:url(#Nueva_muestra_de_degradado_1-17);}.cls-19{fill:url(#Nueva_muestra_de_degradado_1-18);}.cls-20{fill:url(#Nueva_muestra_de_degradado_1-19);}.cls-21{fill:url(#Nueva_muestra_de_degradado_1-20);}.cls-22{fill:url(#Nueva_muestra_de_degradado_1-21);}.cls-23{fill:#96c4e4;}.cls-24{fill:#bd1622;}</style><linearGradient id="Nueva_muestra_de_degradado_1" x1="142.8" y1="10.44" x2="147.64" y2="61.15" gradientUnits="userSpaceOnUse"><stop offset="0" stop-color="#fff"/><stop offset="0.65" stop-color="#cb6198"/><stop offset="0.84" stop-color="#994a74"/></linearGradient><linearGradient id="Nueva_muestra_de_degradado_1-2" x1="167.97" y1="9.84" x2="168" y2="10.18" xlink:href="#Nueva_muestra_de_degradado_1"/><linearGradient id="Nueva_muestra_de_degradado_1-3" x1="165.49" y1="8.65" x2="165.63" y2="10.17" xlink:href="#Nueva_muestra_de_degradado_1"/><linearGradient id="Nueva_muestra_de_degradado_1-4" x1="167.8" y1="9.87" x2="167.8" y2="9.88" xlink:href="#Nueva_muestra_de_degradado_1"/><linearGradient id="Nueva_muestra_de_degradado_1-5" x1="163.18" y1="8.82" x2="163.18" y2="8.86" xlink:href="#Nueva_muestra_de_degradado_1"/><linearGradient id="Nueva_muestra_de_degradado_1-6" x1="198.96" y1="3.9" x2="204.13" y2="57.94" xlink:href="#Nueva_muestra_de_degradado_1"/><linearGradient id="Nueva_muestra_de_degradado_1-7" x1="175.64" y1="6.17" x2="175.64" y2="6.17" xlink:href="#Nueva_muestra_de_degradado_1"/><linearGradient id="Nueva_muestra_de_degradado_1-8" x1="175.77" y1="6.11" x2="175.78" y2="6.15" xlink:href="#Nueva_muestra_de_degradado_1"/><linearGradient id="Nueva_muestra_de_degradado_1-9" x1="242.84" y1="41.16" x2="244.24" y2="55.79" xlink:href="#Nueva_muestra_de_degradado_1"/><linearGradient id="Nueva_muestra_de_degradado_1-10" x1="161.5" y1="8.63" x2="162.16" y2="8.63" xlink:href="#Nueva_muestra_de_degradado_1"/><linearGradient id="Nueva_muestra_de_degradado_1-11" x1="231.55" y1="64" x2="226.36" y2="13.32" xlink:href="#Nueva_muestra_de_degradado_1"/><linearGradient id="Nueva_muestra_de_degradado_1-12" x1="206.38" y1="64.78" x2="206.35" y2="64.44" xlink:href="#Nueva_muestra_de_degradado_1"/><linearGradient id="Nueva_muestra_de_degradado_1-13" x1="208.88" y1="65.95" x2="208.72" y2="64.43" xlink:href="#Nueva_muestra_de_degradado_1"/><linearGradient id="Nueva_muestra_de_degradado_1-14" x1="206.58" y1="64.73" x2="206.58" y2="64.71" xlink:href="#Nueva_muestra_de_degradado_1"/><linearGradient id="Nueva_muestra_de_degradado_1-15" x1="206.55" y1="64.74" x2="206.55" y2="64.73" xlink:href="#Nueva_muestra_de_degradado_1"/><linearGradient id="Nueva_muestra_de_degradado_1-16" x1="206.54" y1="64.76" x2="206.53" y2="64.73" xlink:href="#Nueva_muestra_de_degradado_1"/><linearGradient id="Nueva_muestra_de_degradado_1-17" x1="175.43" y1="70.92" x2="169.9" y2="16.93" xlink:href="#Nueva_muestra_de_degradado_1"/><linearGradient id="Nueva_muestra_de_degradado_1-18" x1="198.74" y1="68.5" x2="198.74" y2="68.49" xlink:href="#Nueva_muestra_de_degradado_1"/><linearGradient id="Nueva_muestra_de_degradado_1-19" x1="198.6" y1="68.55" x2="198.6" y2="68.51" xlink:href="#Nueva_muestra_de_degradado_1"/><linearGradient id="Nueva_muestra_de_degradado_1-20" x1="131.31" y1="33.97" x2="129.81" y2="19.35" xlink:href="#Nueva_muestra_de_degradado_1"/><linearGradient id="Nueva_muestra_de_degradado_1-21" x1="212.2" y1="65.94" x2="212.86" y2="65.94" xlink:href="#Nueva_muestra_de_degradado_1"/></defs><title>Logo_OneMe</title><circle class="cls-1" cx="188.34" cy="35.96" r="34.42"/><path class="cls-2" d="M122.27,56.23l.7,7.28s8.52-3.67,31.22-40.58A53.11,53.11,0,0,1,167.65,10l-4.38-1.12h0l-.12,0h0l-.22-.06c-.48-.06-.25-.18-.7-.16C150.43,9.13,122.27,56.23,122.27,56.23Z"/><path class="cls-3" d="M167.65,10l.68.16-.48-.29,0,0h0Z"/><path class="cls-4" d="M167.65,10l.13-.1h0l0,0c-.25-.1-3.43-.73-4.58-1Z"/><path class="cls-5" d="M167.78,9.88h0Z"/><path class="cls-6" d="M163.12,8.83l.12,0Z"/><path class="cls-7" d="M163.27,8.86c1.15.26,4.33.89,4.58,1l.06,0-.06,0C180,15,197.78,36.75,212,46.56c12.64,8.72,24.09,8.45,28.65,7.87-26.3-5.5-55.56-50.58-64.92-48.28h-.14L162.51,8.53c.39,0-.36.07.35.23l.22.06h0l.12,0Z"/><path class="cls-8" d="M175.65,6.17h0Z"/><path class="cls-9" d="M175.65,6.17h.11c.1,0,.14,0,.14-.05Z"/><path class="cls-10" d="M238.28,54.25c-2.29.1-10.33-.66-11-.58,14,5.19,27,.94,33-4.62,0,0-2-13.64-2.39-8-.25,3.54-6.15,7.76-10.52,10.41A19.1,19.1,0,0,1,238.28,54.25Z"/><path class="cls-11" d="M161.53,8.68l.63-.08C162.19,8.54,161.33,8.68,161.53,8.68Z"/><path class="cls-12" d="M251.76,18.08,251,10.8s-8.49,3.72-30.94,40.79a52.94,52.94,0,0,1-13.37,13l4.4,1.09.22,0,.18,0c.48.05.25.18.71.15C223.93,65.37,251.76,18.08,251.76,18.08Z"/><path class="cls-13" d="M206,64.47l.48.3h0l0,0h0a0,0,0,0,1,0,0l.11-.08Z"/><path class="cls-14" d="M206.7,64.63l-.11.08h0a0,0,0,0,0,0,0h0a.09.09,0,0,1-.05,0c.28.11,3.43.71,4.59,1Z"/><path class="cls-15" d="M206.59,64.71a0,0,0,0,0,0,0,0,0,0,0,1,0,0Z"/><path class="cls-16" d="M206.57,64.73h0Z"/><path class="cls-17" d="M206.56,64.73h0l0,0A.09.09,0,0,0,206.56,64.73Z"/><path class="cls-18" d="M206.44,64.8h0Zm4.66.92c-1.16-.25-4.31-.85-4.59-1h0c-12.14-5-30.11-26.7-44.43-36.42-12.7-8.62-24.15-8.28-28.71-7.67,26.34,5.32,55.91,50.2,65.26,47.84l.06,0h.08L211.85,66c-.39,0,.37-.07-.35-.22l-.18,0Z"/><path class="cls-19" d="M198.73,68.5h0Z"/><path class="cls-20" d="M198.73,68.5h0l-.06,0-.14,0Z"/><path class="cls-21" d="M146.77,21.35c-14-5.1-27-.75-33,4.85,0,0,2.07,13.62,2.44,8,.23-3.54,6.1-7.8,10.44-10.48a19.29,19.29,0,0,1,9.14-2.86C138.07,20.73,146.1,21.44,146.77,21.35Z"/><path class="cls-22" d="M212.83,65.89l-.62.09S213,65.89,212.83,65.89Z"/><path class="cls-23" d="M105,124.13q7,0,11.11,3.78a13.92,13.92,0,0,1,2.26,17.42q-4.06,6.53-13.33,6.52-7,0-11-3.79a13.18,13.18,0,0,1-3.34-4.84,13.88,13.88,0,0,1-1-5.24,13.67,13.67,0,0,1,2.06-7.36Q95.68,124.25,105,124.13Zm0,4.55A9.29,9.29,0,0,0,98.65,131a9.7,9.7,0,0,0,0,14.07,9.32,9.32,0,0,0,6.43,2.28,9.2,9.2,0,0,0,6.4-2.28,8.9,8.9,0,0,0,2.32-3.31,9.5,9.5,0,0,0,.7-3.6,8.94,8.94,0,0,0-3-7.16A9.6,9.6,0,0,0,105,128.68Z"/><path class="cls-23" d="M131.28,133v16.29a1.38,1.38,0,0,0,.27.92,2,2,0,0,0,1,.51v.63h-7.86v-.63a2,2,0,0,0,1-.51,1.38,1.38,0,0,0,.27-.92V126.64a1.37,1.37,0,0,0-.27-.91,2.12,2.12,0,0,0-1-.5v-.63h9.1v.63q-.84.21-.84.9a1.59,1.59,0,0,0,.55,1l14.77,15.36V126.64a1.32,1.32,0,0,0-.28-.91,2.07,2.07,0,0,0-1-.5v-.63h7.87v.63a2.07,2.07,0,0,0-1,.5,1.37,1.37,0,0,0-.28.91v22.68a1.38,1.38,0,0,0,.28.92,2,2,0,0,0,1,.51v.63h-8.44v-.63c.55-.12.83-.4.83-.84,0-.27-.32-.72-1-1.38Z"/><path class="cls-23" d="M166.79,139.62V147H184a1.35,1.35,0,0,0,.91-.27,2,2,0,0,0,.51-1h.62v6.92h-.62a2,2,0,0,0-.51-1,1.35,1.35,0,0,0-.91-.27H159.69v-.63a2,2,0,0,0,1-.51,1.38,1.38,0,0,0,.27-.92V126.66a1.39,1.39,0,0,0-.27-.93,2.12,2.12,0,0,0-1-.5v-.63h23.85a1.31,1.31,0,0,0,.9-.28,2.12,2.12,0,0,0,.52-1h.62v6.93H185a2.12,2.12,0,0,0-.52-1,1.26,1.26,0,0,0-.9-.28H166.79v6.36h10.87a1.29,1.29,0,0,0,.9-.28,2,2,0,0,0,.51-1h.63v6.77h-.63a2,2,0,0,0-.51-1,1.3,1.3,0,0,0-.9-.29Z"/><path class="cls-1" d="M206.77,137v6.76h-.63a2,2,0,0,0-.51-1,1.37,1.37,0,0,0-.92-.27h-4.82a1.35,1.35,0,0,0-.92.28,2,2,0,0,0-.5,1h-.62V137h.62a1.81,1.81,0,0,0,.52,1,1.38,1.38,0,0,0,.93.28h5a1.42,1.42,0,0,0,.94-.27,1.7,1.7,0,0,0,.47-1Z"/><path class="cls-24" d="M235.72,151.38l-9.88-18.5v16.44a1.33,1.33,0,0,0,.28.92,2,2,0,0,0,1,.51v.63h-7.87v-.63a2,2,0,0,0,1-.51,1.38,1.38,0,0,0,.28-.92V126.64a1.37,1.37,0,0,0-.28-.91,2.07,2.07,0,0,0-1-.5v-.63h10.32v.63a1,1,0,0,0-.92,1.07,1.89,1.89,0,0,0,.28.91l7.3,13.84,7.4-13.61a3.24,3.24,0,0,0,.49-1.31c0-.54-.32-.84-1-.9v-.63h10.13v.63a2.07,2.07,0,0,0-1,.5,1.37,1.37,0,0,0-.28.91v22.68a1.38,1.38,0,0,0,.28.92,2,2,0,0,0,1,.51v.63h-8.36v-.63a1.88,1.88,0,0,0,1-.5,1.38,1.38,0,0,0,.29-.93V132.88Z"/><path class="cls-24" d="M265.16,139.62V147h17.22a1.35,1.35,0,0,0,.91-.27,2,2,0,0,0,.51-1h.62v6.92h-.62a2,2,0,0,0-.51-1,1.35,1.35,0,0,0-.91-.27H258.06v-.63a2,2,0,0,0,1-.51,1.38,1.38,0,0,0,.27-.92V126.66a1.39,1.39,0,0,0-.27-.93,2.12,2.12,0,0,0-1-.5v-.63h23.85a1.36,1.36,0,0,0,.91-.28,2.12,2.12,0,0,0,.51-1H284v6.93h-.62a2.12,2.12,0,0,0-.51-1,1.31,1.31,0,0,0-.91-.28H265.16v6.36H276a1.29,1.29,0,0,0,.9-.28,2,2,0,0,0,.51-1h.63v6.77h-.63a2,2,0,0,0-.51-1,1.3,1.3,0,0,0-.9-.29Z"/></svg>