<svg id="Capa_1" data-name="Capa 1" xmlns="http://www.w3.org/2000/svg" xmlns:xlink="http://www.w3.org/1999/xlink" viewBox="0 0 366.07 153.24"><defs><style>.cls-1{fill:#97c5e4;}.cls-2{fill:#be1622;}.cls-3{fill:#aab6cb;}.cls-4{fill:url(#Nueva_muestra_de_degradado_1);}.cls-5{fill:url(#Nueva_muestra_de_degradado_1-2);}.cls-6{fill:url(#Nueva_muestra_de_degradado_1-3);}.cls-7{fill:url(#Nueva_muestra_de_degradado_1-4);}.cls-8{fill:url(#Nueva_muestra_de_degradado_1-5);}.cls-9{fill:url(#Nueva_muestra_de_degradado_1-6);}.cls-10{fill:url(#Nueva_muestra_de_degradado_1-7);}.cls-11{fill:url(#Nueva_muestra_de_degradado_1-8);}.cls-12{fill:url(#Nueva_muestra_de_degradado_1-9);}.cls-13{fill:url(#Nueva_muestra_de_degradado_1-10);}.cls-14{fill:url(#Nueva_muestra_de_degradado_1-11);}.cls-15{fill:url(#Nueva_muestra_de_degradado_1-12);}.cls-16{fill:url(#Nueva_muestra_de_degradado_1-13);}.cls-17{fill:url(#Nueva_muestra_de_degradado_1-14);}.cls-18{fill:url(#Nueva_muestra_de_degradado_1-15);}.cls-19{fill:url(#Nueva_muestra_de_degradado_1-16);}.cls-20{fill:url(#Nueva_muestra_de_degradado_1-17);}.cls-21{fill:url(#Nueva_muestra_de_degradado_1-18);}.cls-22{fill:url(#Nueva_muestra_de_degradado_1-19);}.cls-23{fill:url(#Nueva_muestra_de_degradado_1-20);}</style><linearGradient id="Nueva_muestra_de_degradado_1" x1="376.04" y1="230.09" x2="380.98" y2="281.84" gradientUnits="userSpaceOnUse"><stop offset="0" stop-color="#fff"/><stop offset="0.65" stop-color="#cc6199"/><stop offset="0.84" stop-color="#9a4b74"/></linearGradient><linearGradient id="Nueva_muestra_de_degradado_1-2" x1="401.72" y1="229.47" x2="401.75" y2="229.82" xlink:href="#Nueva_muestra_de_degradado_1"/><linearGradient id="Nueva_muestra_de_degradado_1-3" x1="399.19" y1="228.26" x2="399.34" y2="229.81" xlink:href="#Nueva_muestra_de_degradado_1"/><linearGradient id="Nueva_muestra_de_degradado_1-4" x1="401.54" y1="229.51" x2="401.54" y2="229.53" xlink:href="#Nueva_muestra_de_degradado_1"/><linearGradient id="Nueva_muestra_de_degradado_1-5" x1="401.58" y1="229.49" x2="401.58" y2="229.5" xlink:href="#Nueva_muestra_de_degradado_1"/><linearGradient id="Nueva_muestra_de_degradado_1-6" x1="396.83" y1="228.44" x2="396.83" y2="228.48" xlink:href="#Nueva_muestra_de_degradado_1"/><linearGradient id="Nueva_muestra_de_degradado_1-7" x1="433.36" y1="223.42" x2="438.62" y2="278.55" xlink:href="#Nueva_muestra_de_degradado_1"/><linearGradient id="Nueva_muestra_de_degradado_1-8" x1="409.67" y1="225.68" x2="409.67" y2="225.72" xlink:href="#Nueva_muestra_de_degradado_1"/><linearGradient id="Nueva_muestra_de_degradado_1-9" x1="478.12" y1="261.44" x2="479.55" y2="276.36" xlink:href="#Nueva_muestra_de_degradado_1"/><linearGradient id="Nueva_muestra_de_degradado_1-10" x1="395.12" y1="228.24" x2="395.79" y2="228.24" xlink:href="#Nueva_muestra_de_degradado_1"/><linearGradient id="Nueva_muestra_de_degradado_1-11" x1="466.6" y1="284.74" x2="461.3" y2="233.03" xlink:href="#Nueva_muestra_de_degradado_1"/><linearGradient id="Nueva_muestra_de_degradado_1-12" x1="440.92" y1="285.53" x2="440.88" y2="285.19" xlink:href="#Nueva_muestra_de_degradado_1"/><linearGradient id="Nueva_muestra_de_degradado_1-13" x1="443.56" y1="286.78" x2="443.39" y2="285.17" xlink:href="#Nueva_muestra_de_degradado_1"/><linearGradient id="Nueva_muestra_de_degradado_1-14" x1="441.12" y1="285.48" x2="441.12" y2="285.47" xlink:href="#Nueva_muestra_de_degradado_1"/><linearGradient id="Nueva_muestra_de_degradado_1-15" x1="441.09" y1="285.49" x2="441.09" y2="285.48" xlink:href="#Nueva_muestra_de_degradado_1"/><linearGradient id="Nueva_muestra_de_degradado_1-16" x1="441.07" y1="285.51" x2="441.07" y2="285.49" xlink:href="#Nueva_muestra_de_degradado_1"/><linearGradient id="Nueva_muestra_de_degradado_1-17" x1="409.33" y1="291.8" x2="403.69" y2="236.71" xlink:href="#Nueva_muestra_de_degradado_1"/><linearGradient id="Nueva_muestra_de_degradado_1-18" x1="432.98" y1="289.38" x2="432.98" y2="289.34" xlink:href="#Nueva_muestra_de_degradado_1"/><linearGradient id="Nueva_muestra_de_degradado_1-19" x1="364.31" y1="254.09" x2="362.78" y2="239.17" xlink:href="#Nueva_muestra_de_degradado_1"/><linearGradient id="Nueva_muestra_de_degradado_1-20" x1="446.86" y1="286.72" x2="447.53" y2="286.72" xlink:href="#Nueva_muestra_de_degradado_1"/></defs><title>Logo_Microsound</title><path class="cls-1" d="M238.15,373.14a1.19,1.19,0,0,0,.74-.24.83.83,0,0,0,.32-.72V348a.68.68,0,0,0-.32-.66,1.38,1.38,0,0,0-.74-.19v-.95h9.91v.95a1.26,1.26,0,0,0-.56.16.53.53,0,0,0-.29.48,1.73,1.73,0,0,0,.21.69q.21.42.48.9l7.57,13.77,7.63-13.61c.25-.46.43-.83.56-1.09a1.73,1.73,0,0,0,.18-.71c0-.39-.23-.59-.69-.59v-.95H273v.95a1.38,1.38,0,0,0-.74.19.7.7,0,0,0-.32.66v24.15a.85.85,0,0,0,.32.72,1.19,1.19,0,0,0,.74.24v.95h-8.31v-.95c.95,0,1.43-.32,1.43-1V354.6H266l-10.65,19.49h-.15l-10.44-19.54h-.11v17.63c0,.64.5,1,1.49,1v.95h-7.95Z" transform="translate(-238.15 -221.01)"/><path class="cls-1" d="M282,373.14q1.38,0,1.38-1v-24q0-1-1.38-1v-.95h8.79v.95c-.92,0-1.37.32-1.37,1v24c0,.64.45,1,1.37,1v.95H282Z" transform="translate(-238.15 -221.01)"/><path class="cls-1" d="M329.21,370.28a1.39,1.39,0,0,1-.3,0,1.23,1.23,0,0,0-.29,0,5.17,5.17,0,0,0-1.51.64c-.79.42-1.8.9-3,1.43a26.54,26.54,0,0,1-4.15,1.38,20,20,0,0,1-4.88.58,23.83,23.83,0,0,1-6.41-.85,15.93,15.93,0,0,1-5.43-2.62,13,13,0,0,1-3.73-4.42,13.49,13.49,0,0,1,3.73-16.85,16.46,16.46,0,0,1,5.43-2.7,22.72,22.72,0,0,1,6.41-.9,26.17,26.17,0,0,1,4.9.42c1.47.29,2.75.59,3.84.91a18.93,18.93,0,0,1,2.6.9,4.68,4.68,0,0,0,1.16.42.53.53,0,0,0,.45-.27c.13-.17.22-.31.3-.42l.79.64L325,354.92l-.53-.37a1.66,1.66,0,0,0,0-.32,3.6,3.6,0,0,0-.08-.37c-.07-.39-.42-.79-1.06-1.2a11.25,11.25,0,0,0-2.35-1.08,25.75,25.75,0,0,0-3-.8,14.61,14.61,0,0,0-2.89-.31,14.35,14.35,0,0,0-4.26.63,10.63,10.63,0,0,0-3.55,1.86,9,9,0,0,0-2.41,3,9.56,9.56,0,0,0,0,8.1,9.06,9.06,0,0,0,2.41,3,10.61,10.61,0,0,0,3.55,1.85,14.36,14.36,0,0,0,4.26.64,17.32,17.32,0,0,0,3.55-.4,21.18,21.18,0,0,0,3.39-1,10.65,10.65,0,0,0,2.57-1.38c.69-.51,1-1,1-1.45a1,1,0,0,0-.21-.64l.74-.42,3.5,5.61Z" transform="translate(-238.15 -221.01)"/><path class="cls-1" d="M355.85,346.23a21.77,21.77,0,0,1,4.61.45,10.53,10.53,0,0,1,3.55,1.43,6.61,6.61,0,0,1,2.27,2.54,8.39,8.39,0,0,1,.8,3.84,6.8,6.8,0,0,1-2.07,5.35,11.05,11.05,0,0,1-5.56,2.49l7,10.07a1.44,1.44,0,0,0,.88.63,4.52,4.52,0,0,0,.93.11v.95h-9.91v-.95a2,2,0,0,0,.82-.16c.23-.11.35-.25.35-.42a1.23,1.23,0,0,0-.22-.61q-.21-.34-.63-.93l-5.83-8.26h-7.57v9.42a.82.82,0,0,0,.34.72,2.33,2.33,0,0,0,1.25.24v.95h-9.17v-.95c1,0,1.54-.32,1.54-1v-24c0-.64-.51-1-1.54-1v-.95Zm-1.38,12.39a14.24,14.24,0,0,0,3.18-.29,5.53,5.53,0,0,0,2-.82,3,3,0,0,0,1.06-1.24,4,4,0,0,0,0-3.13,3,3,0,0,0-1.06-1.24,5.36,5.36,0,0,0-2-.82,14.18,14.18,0,0,0-3.18-.3h-9.16v7.84Z" transform="translate(-238.15 -221.01)"/><path class="cls-1" d="M392.34,345.91a21.41,21.41,0,0,1,5.94.87,18.5,18.5,0,0,1,5.5,2.63,14.16,14.16,0,0,1,4.08,4.42,13.4,13.4,0,0,1,0,12.66,14.16,14.16,0,0,1-4.08,4.42,16.74,16.74,0,0,1-5.5,2.54,22.42,22.42,0,0,1-11.87,0,16.79,16.79,0,0,1-5.51-2.54,14.16,14.16,0,0,1-4.08-4.42,13.4,13.4,0,0,1,0-12.66,14.16,14.16,0,0,1,4.08-4.42,18.56,18.56,0,0,1,5.51-2.63A21.34,21.34,0,0,1,392.34,345.91Zm0,4.87a13.39,13.39,0,0,0-4,.64,12,12,0,0,0-3.63,1.83,9.35,9.35,0,0,0-2.62,2.94,8.31,8.31,0,0,0,0,7.94,9.35,9.35,0,0,0,2.62,2.94,12,12,0,0,0,3.63,1.83,13,13,0,0,0,8.05,0,12.15,12.15,0,0,0,3.63-1.83,9.48,9.48,0,0,0,2.62-2.94,8.31,8.31,0,0,0,0-7.94,9.48,9.48,0,0,0-2.62-2.94,12.15,12.15,0,0,0-3.63-1.83A13.46,13.46,0,0,0,392.34,350.78Z" transform="translate(-238.15 -221.01)"/><path class="cls-2" d="M419.57,365.35l.53.27a1.66,1.66,0,0,0,.21.84,3.75,3.75,0,0,0,1.46,1.25,14.44,14.44,0,0,0,2.49,1.08,20.4,20.4,0,0,0,2.94.77,14.39,14.39,0,0,0,2.75.29c.6,0,1.38,0,2.33-.13a14.25,14.25,0,0,0,2.81-.55,8.13,8.13,0,0,0,2.38-1.17,2.32,2.32,0,0,0,1-2,2,2,0,0,0-.93-1.8,6.84,6.84,0,0,0-2.43-.85,27.21,27.21,0,0,0-3.45-.34c-1.29-.06-2.6-.14-3.94-.24a36.11,36.11,0,0,1-4-.53,10.74,10.74,0,0,1-3.44-1.25,6.78,6.78,0,0,1-2.44-2.38,8,8,0,0,1-.16-7.18,7.79,7.79,0,0,1,2.36-2.8,12.8,12.8,0,0,1,4-2,19.22,19.22,0,0,1,5.72-.77,24.78,24.78,0,0,1,4.88.42,36.63,36.63,0,0,1,3.57.91q1.51.47,2.55.9a4.73,4.73,0,0,0,1.72.42,1.48,1.48,0,0,0,1.06-.32l.63.43-3.65,6.62-.53-.22a2.93,2.93,0,0,0-.42-1.21,4.66,4.66,0,0,0-1.41-1.25,12,12,0,0,0-2.3-1.08,18.37,18.37,0,0,0-2.86-.77,16.06,16.06,0,0,0-3.08-.29,16.91,16.91,0,0,0-2.41.18,11.56,11.56,0,0,0-2.25.56,5.05,5.05,0,0,0-1.67,1,2,2,0,0,0-.66,1.51,2.14,2.14,0,0,0,.93,1.9,6.62,6.62,0,0,0,2.44,1,23,23,0,0,0,3.44.42c1.29.07,2.6.16,3.95.27a31.93,31.93,0,0,1,3.94.55,11.52,11.52,0,0,1,3.44,1.27,7,7,0,0,1,2.44,2.36,7.2,7.2,0,0,1,.93,3.87,6.82,6.82,0,0,1-1.46,4.5,10.31,10.31,0,0,1-3.63,2.76,16.34,16.34,0,0,1-4.68,1.35,34.74,34.74,0,0,1-4.69.34,31.17,31.17,0,0,1-5.06-.34,19.37,19.37,0,0,1-3.39-.85c-.9-.34-1.62-.64-2.15-.9a3.13,3.13,0,0,0-1.37-.4.88.88,0,0,0-.69.42l-.74-.42Z" transform="translate(-238.15 -221.01)"/><path class="cls-2" d="M468.88,345.91a21.41,21.41,0,0,1,5.94.87,18.56,18.56,0,0,1,5.51,2.63,14.13,14.13,0,0,1,4.07,4.42,13.4,13.4,0,0,1,0,12.66,14.13,14.13,0,0,1-4.07,4.42,16.79,16.79,0,0,1-5.51,2.54,22.42,22.42,0,0,1-11.87,0,16.79,16.79,0,0,1-5.51-2.54,14.16,14.16,0,0,1-4.08-4.42,13.4,13.4,0,0,1,0-12.66,14.16,14.16,0,0,1,4.08-4.42,18.56,18.56,0,0,1,5.51-2.63A21.34,21.34,0,0,1,468.88,345.91Zm0,4.87a13.39,13.39,0,0,0-4,.64,12.15,12.15,0,0,0-3.63,1.83,9.35,9.35,0,0,0-2.62,2.94,8.31,8.31,0,0,0,0,7.94,9.35,9.35,0,0,0,2.62,2.94,12.15,12.15,0,0,0,3.63,1.83,13,13,0,0,0,8.05,0,12.15,12.15,0,0,0,3.63-1.83,9.48,9.48,0,0,0,2.62-2.94,8.31,8.31,0,0,0,0-7.94,9.48,9.48,0,0,0-2.62-2.94,12.15,12.15,0,0,0-3.63-1.83A13.41,13.41,0,0,0,468.88,350.78Z" transform="translate(-238.15 -221.01)"/><path class="cls-2" d="M501.67,347.18c-.77,0-1.16.32-1.16,1V364q0,3.33,2.14,4.58a16.52,16.52,0,0,0,12.56,0q2.14-1.25,2.14-4.58V348.14q0-1-1.59-1v-.95h8.48v.95c-.85,0-1.27.32-1.27,1v15.62a12.85,12.85,0,0,1-.9,5.17,7.56,7.56,0,0,1-2.71,3.25,10.94,10.94,0,0,1-4.47,1.65,45.53,45.53,0,0,1-12.34,0,10.93,10.93,0,0,1-4.48-1.65,7.47,7.47,0,0,1-2.7-3.25,12.85,12.85,0,0,1-.9-5.17V348.14c0-.64-.5-1-1.48-1v-.95h8.68Z" transform="translate(-238.15 -221.01)"/><path class="cls-2" d="M532.55,373.14c.67,0,1-.32,1-1v-24c0-.64-.34-1-1-1v-.95h9.06v.95c-.28,0-.42.18-.42.53s.35.78,1.06,1.49L557.45,365V348.14q0-1-1.38-1v-.95h8v.95c-.67,0-1,.32-1,1v24c0,.64.34,1,1,1v.95h-8.58v-.95q.69,0,.69-.48c0-.25-.29-.65-.85-1.22L539.17,354.6v17.58c0,.64.41,1,1.22,1v.95h-7.84Z" transform="translate(-238.15 -221.01)"/><path class="cls-2" d="M590.45,346.23a16.79,16.79,0,0,1,5.43.85,11.57,11.57,0,0,1,7.28,6.91,18.49,18.49,0,0,1,0,12.34,11.57,11.57,0,0,1-7.28,6.91,16.79,16.79,0,0,1-5.43.85H572.86v-.95c.82,0,1.22-.32,1.22-1v-24c0-.64-.4-1-1.22-1v-.95Zm-2.12,23.31a19.72,19.72,0,0,0,4.34-.43,6.76,6.76,0,0,0,3.08-1.51,6.52,6.52,0,0,0,1.82-2.88,17.35,17.35,0,0,0,0-9.12,6.52,6.52,0,0,0-1.82-2.88,6.76,6.76,0,0,0-3.08-1.51,19.72,19.72,0,0,0-4.34-.43h-8.21v18.76Z" transform="translate(-238.15 -221.01)"/><circle class="cls-3" cx="184.35" cy="35.12" r="35.12"/><path class="cls-4" d="M355.1,276.8l.71,7.44s8.69-3.74,31.86-41.41a54,54,0,0,1,13.73-13.21l-4.48-1.14h0l-.13,0h0a1.33,1.33,0,0,1-.23-.06c-.49-.06-.26-.18-.72-.16C383.83,228.75,355.1,276.8,355.1,276.8Z" transform="translate(-238.15 -221.01)"/><path class="cls-5" d="M402.09,229.79l-.49-.31h0l0,0,0,0a.5.5,0,0,0-.12.08Z" transform="translate(-238.15 -221.01)"/><path class="cls-6" d="M401.4,229.62a.5.5,0,0,1,.12-.08h0l0,0s0,0,0,0c-.29-.11-3.5-.75-4.68-1Z" transform="translate(-238.15 -221.01)"/><path class="cls-7" d="M401.52,229.54l0,0,0,0Z" transform="translate(-238.15 -221.01)"/><path class="cls-8" d="M401.56,229.51l0,0S401.57,229.5,401.56,229.51Z" transform="translate(-238.15 -221.01)"/><path class="cls-9" d="M396.77,228.44l.13,0Z" transform="translate(-238.15 -221.01)"/><path class="cls-10" d="M401.67,229.45l-.07,0c12.36,5.23,30.55,27.45,45.08,37.47,12.9,8.89,24.59,8.61,29.25,8-26.85-5.6-56.71-51.61-66.26-49.26h-.06l-.09,0h0l-13.37,2.4c.39,0-.38.07.35.23a1.33,1.33,0,0,0,.23.06h0l.13,0h0c1.18.25,4.39.89,4.68,1h0Z" transform="translate(-238.15 -221.01)"/><path class="cls-11" d="M409.56,225.73h.11l.11,0Z" transform="translate(-238.15 -221.01)"/><path class="cls-12" d="M482.81,271.94a19.6,19.6,0,0,1-9.35,2.85c-2.33.11-10.53-.67-11.21-.59,14.23,5.3,27.58,1,33.73-4.72,0,0-2-13.91-2.44-8.15C493.28,264.93,487.27,269.24,482.81,271.94Z" transform="translate(-238.15 -221.01)"/><path class="cls-13" d="M395.15,228.29l.64-.08C395.83,228.15,395,228.29,395.15,228.29Z" transform="translate(-238.15 -221.01)"/><path class="cls-14" d="M487.22,237.88l-.76-7.43s-8.66,3.8-31.57,41.63a54.07,54.07,0,0,1-13.65,13.31l4.68,1.15h0l.18,0c.49.07.26.19.72.17C458.82,286.14,487.22,237.88,487.22,237.88Z" transform="translate(-238.15 -221.01)"/><path class="cls-15" d="M441.24,285.39l-.69-.17.49.3,0,0s0,0,0,0h0Z" transform="translate(-238.15 -221.01)"/><path class="cls-16" d="M441.24,285.39l-.11.08h0l-.06,0c.27.11,3.93.81,4.88,1Z" transform="translate(-238.15 -221.01)"/><path class="cls-17" d="M441.13,285.47h0Z" transform="translate(-238.15 -221.01)"/><path class="cls-18" d="M441.11,285.48s0,0,0,0,0,0,0,0Z" transform="translate(-238.15 -221.01)"/><path class="cls-19" d="M441.1,285.49s0,0,0,0l0,0Z" transform="translate(-238.15 -221.01)"/><path class="cls-20" d="M441,285.56l0,0Zm.06,0c-12.39-5.15-30.73-27.23-45.34-37.16-13-8.8-24.64-8.44-29.29-7.82,26.88,5.43,57,51.22,66.59,48.81l.06,0,.08,0h0l13.36-2.49c-.4,0,.38-.08-.36-.24l-.18,0h0C445,286.33,441.31,285.63,441,285.52Z" transform="translate(-238.15 -221.01)"/><path class="cls-21" d="M433.11,289.33h-.05l-.06,0-.15,0Z" transform="translate(-238.15 -221.01)"/><path class="cls-22" d="M380.09,241.22c-14.27-5.2-27.58-.77-33.69,4.95,0,0,2.11,13.89,2.49,8.14.23-3.61,6.22-7.95,10.66-10.69a19.72,19.72,0,0,1,9.32-2.92C371.21,240.58,379.41,241.31,380.09,241.22Z" transform="translate(-238.15 -221.01)"/><path class="cls-23" d="M447.5,286.66l-.64.1C446.83,286.81,447.7,286.67,447.5,286.66Z" transform="translate(-238.15 -221.01)"/></svg>