<svg id="Capa_1" data-name="Capa 1" xmlns="http://www.w3.org/2000/svg" xmlns:xlink="http://www.w3.org/1999/xlink" viewBox="0 0 543.46 70.24"><defs><style>.cls-1{fill:#a9b5ca;}.cls-2{fill:url(#Nueva_muestra_de_degradado_1);}.cls-3{fill:url(#Nueva_muestra_de_degradado_1-2);}.cls-4{fill:url(#Nueva_muestra_de_degradado_1-3);}.cls-5{fill:url(#Nueva_muestra_de_degradado_1-4);}.cls-6{fill:url(#Nueva_muestra_de_degradado_1-5);}.cls-7{fill:url(#Nueva_muestra_de_degradado_1-6);}.cls-8{fill:url(#Nueva_muestra_de_degradado_1-7);}.cls-9{fill:url(#Nueva_muestra_de_degradado_1-8);}.cls-10{fill:url(#Nueva_muestra_de_degradado_1-9);}.cls-11{fill:url(#Nueva_muestra_de_degradado_1-10);}.cls-12{fill:url(#Nueva_muestra_de_degradado_1-11);}.cls-13{fill:url(#Nueva_muestra_de_degradado_1-12);}.cls-14{fill:url(#Nueva_muestra_de_degradado_1-13);}.cls-15{fill:url(#Nueva_muestra_de_degradado_1-14);}.cls-16{fill:url(#Nueva_muestra_de_degradado_1-15);}.cls-17{fill:url(#Nueva_muestra_de_degradado_1-16);}.cls-18{fill:url(#Nueva_muestra_de_degradado_1-17);}.cls-19{fill:url(#Nueva_muestra_de_degradado_1-18);}.cls-20{fill:#96c4e4;}.cls-21{fill:#bd1622;}</style><linearGradient id="Nueva_muestra_de_degradado_1" x1="195.85" y1="261.18" x2="201.11" y2="316.31" gradientUnits="userSpaceOnUse"><stop offset="0" stop-color="#fff"/><stop offset="0.65" stop-color="#cb6198"/><stop offset="0.84" stop-color="#994a74"/></linearGradient><linearGradient id="Nueva_muestra_de_degradado_1-2" x1="138.53" y1="267.85" x2="143.47" y2="319.6" xlink:href="#Nueva_muestra_de_degradado_1"/><linearGradient id="Nueva_muestra_de_degradado_1-3" x1="164.21" y1="267.23" x2="164.25" y2="267.58" xlink:href="#Nueva_muestra_de_degradado_1"/><linearGradient id="Nueva_muestra_de_degradado_1-4" x1="161.69" y1="266.02" x2="161.83" y2="267.57" xlink:href="#Nueva_muestra_de_degradado_1"/><linearGradient id="Nueva_muestra_de_degradado_1-5" x1="164.04" y1="267.27" x2="164.04" y2="267.28" xlink:href="#Nueva_muestra_de_degradado_1"/><linearGradient id="Nueva_muestra_de_degradado_1-6" x1="159.33" y1="266.19" x2="159.33" y2="266.24" xlink:href="#Nueva_muestra_de_degradado_1"/><linearGradient id="Nueva_muestra_de_degradado_1-7" x1="172.04" y1="263.49" x2="172.04" y2="263.49" xlink:href="#Nueva_muestra_de_degradado_1"/><linearGradient id="Nueva_muestra_de_degradado_1-8" x1="172.18" y1="263.43" x2="172.18" y2="263.47" xlink:href="#Nueva_muestra_de_degradado_1"/><linearGradient id="Nueva_muestra_de_degradado_1-9" x1="240.61" y1="299.19" x2="242.04" y2="314.12" xlink:href="#Nueva_muestra_de_degradado_1"/><linearGradient id="Nueva_muestra_de_degradado_1-10" x1="157.61" y1="266" x2="158.29" y2="266" xlink:href="#Nueva_muestra_de_degradado_1"/><linearGradient id="Nueva_muestra_de_degradado_1-11" x1="171.83" y1="329.56" x2="166.18" y2="274.47" xlink:href="#Nueva_muestra_de_degradado_1"/><linearGradient id="Nueva_muestra_de_degradado_1-12" x1="229.09" y1="322.5" x2="223.8" y2="270.79" xlink:href="#Nueva_muestra_de_degradado_1"/><linearGradient id="Nueva_muestra_de_degradado_1-13" x1="203.41" y1="323.29" x2="203.38" y2="322.95" xlink:href="#Nueva_muestra_de_degradado_1"/><linearGradient id="Nueva_muestra_de_degradado_1-14" x1="206.07" y1="324.55" x2="205.91" y2="322.93" xlink:href="#Nueva_muestra_de_degradado_1"/><linearGradient id="Nueva_muestra_de_degradado_1-15" x1="203.58" y1="323.27" x2="203.58" y2="323.23" xlink:href="#Nueva_muestra_de_degradado_1"/><linearGradient id="Nueva_muestra_de_degradado_1-16" x1="195.49" y1="327.14" x2="195.49" y2="327.1" xlink:href="#Nueva_muestra_de_degradado_1"/><linearGradient id="Nueva_muestra_de_degradado_1-17" x1="126.81" y1="291.85" x2="125.28" y2="276.93" xlink:href="#Nueva_muestra_de_degradado_1"/><linearGradient id="Nueva_muestra_de_degradado_1-18" x1="209.36" y1="324.48" x2="210.03" y2="324.48" xlink:href="#Nueva_muestra_de_degradado_1"/></defs><title>Logo_Radiewcare_horizontal</title><circle class="cls-1" cx="76.11" cy="35.12" r="35.12"/><path class="cls-2" d="M164.15,267.21l-.06,0c12.36,5.23,30.55,27.45,45.09,37.47,12.89,8.89,24.58,8.61,29.24,8-26.84-5.61-56.7-51.62-66.26-49.27H172l-13.37,2.4c.39,0-.38.07.35.23l.23.06h0l.13,0h0c1.18.26,4.42.9,4.67,1Z" transform="translate(-108.89 -258.77)"/><path class="cls-3" d="M117.59,314.57l.71,7.43s8.69-3.74,31.85-41.41a54.43,54.43,0,0,1,13.74-13.22l-4.47-1.13h0l-.13,0h0l-.23-.06c-.49-.06-.25-.19-.71-.16C146.32,266.51,117.59,314.57,117.59,314.57Z" transform="translate(-108.89 -258.77)"/><path class="cls-4" d="M164.58,267.55l-.49-.31,0,0,0,0-.14.09Z" transform="translate(-108.89 -258.77)"/><path class="cls-5" d="M163.89,267.37l.14-.09,0,0,0,0c-.25-.1-3.49-.74-4.67-1Z" transform="translate(-108.89 -258.77)"/><path class="cls-6" d="M164,267.28l0,0Z" transform="translate(-108.89 -258.77)"/><path class="cls-7" d="M159.26,266.2l.13,0Z" transform="translate(-108.89 -258.77)"/><path class="cls-8" d="M172.05,263.49h0Z" transform="translate(-108.89 -258.77)"/><path class="cls-9" d="M172.05,263.49h.11l.15-.05Z" transform="translate(-108.89 -258.77)"/><path class="cls-10" d="M245.3,309.71a19.66,19.66,0,0,1-9.34,2.84c-2.34.11-10.54-.68-11.22-.59,14.24,5.3,27.58,1,33.73-4.72,0,0-2-13.91-2.43-8.16C255.78,302.69,249.76,307,245.3,309.71Z" transform="translate(-108.89 -258.77)"/><path class="cls-11" d="M157.64,266.05l.64-.08C158.32,265.91,157.45,266.05,157.64,266.05Z" transform="translate(-108.89 -258.77)"/><path class="cls-12" d="M203.47,323.31l.07,0c-12.39-5.15-30.73-27.24-45.34-37.16-13-8.8-24.64-8.44-29.3-7.82,26.88,5.43,57.06,51.22,66.59,48.8h.06l.09,0h0L209,324.59c-.39,0,.38-.08-.35-.24l-.09,0h-.1c-.91-.21-4.6-.91-4.91-1h0Z" transform="translate(-108.89 -258.77)"/><path class="cls-13" d="M249.72,275.64l-.76-7.43s-8.67,3.8-31.58,41.63a53.93,53.93,0,0,1-13.64,13.31l4.71,1.16h.1l.09,0c.49.06.25.19.72.17C221.32,323.9,249.72,275.64,249.72,275.64Z" transform="translate(-108.89 -258.77)"/><path class="cls-14" d="M203,323l.5.3h0l.06,0,.14-.09Z" transform="translate(-108.89 -258.77)"/><path class="cls-15" d="M203.74,323.15l-.14.09-.06,0c.31.12,4,.82,4.91,1Z" transform="translate(-108.89 -258.77)"/><path class="cls-16" d="M203.54,323.28l.06,0Z" transform="translate(-108.89 -258.77)"/><path class="cls-17" d="M195.6,327.09h-.11a.38.38,0,0,0-.11,0Z" transform="translate(-108.89 -258.77)"/><path class="cls-18" d="M122,281.37a19.78,19.78,0,0,1,9.32-2.91c2.34-.12,10.54.61,11.23.52-14.27-5.2-27.59-.77-33.7,4.95,0,0,2.11,13.89,2.49,8.14C111.61,288.46,117.6,284.11,122,281.37Z" transform="translate(-108.89 -258.77)"/><path class="cls-19" d="M210,324.42l-.64.1C209.32,324.57,210.2,324.43,210,324.42Z" transform="translate(-108.89 -258.77)"/><path class="cls-20" d="M305.58,296.28v8.64a1.27,1.27,0,0,0,.28.89,1.83,1.83,0,0,0,.94.49v.61h-8.13v-.61a2,2,0,0,0,1-.5,1.32,1.32,0,0,0,.26-.88V282.87a1.36,1.36,0,0,0-.26-.9,2,2,0,0,0-1-.5v-.61H315a25.39,25.39,0,0,1,4.72.35,8.42,8.42,0,0,1,3,1.2A6,6,0,0,1,325,285.1a8.6,8.6,0,0,1,.71,3.51q0,6.38-7.08,7.46l5.06,7.19a17,17,0,0,0,1.95,2.44,2.51,2.51,0,0,0,1.52.6v.61h-9.41v-.61c.65-.1,1-.33,1-.69a5,5,0,0,0-.89-1.66l-5.28-7.67Zm0-4.29h8.78a21.23,21.23,0,0,0,2.74-.12,4.16,4.16,0,0,0,1.47-.47,3.48,3.48,0,0,0,0-5.65,3.94,3.94,0,0,0-1.46-.49,24.19,24.19,0,0,0-2.75-.1h-8.78Z" transform="translate(-108.89 -258.77)"/><path class="cls-20" d="M354.36,300.27H342.52l-1.75,3.66a3.08,3.08,0,0,0-.36,1.2c0,.56.42.95,1.27,1.17v.61h-8.61v-.61a2.25,2.25,0,0,0,1.16-.54,5.29,5.29,0,0,0,.92-1.48l9.58-20a3.9,3.9,0,0,0,.45-1.53c0-.58-.36-1-1.1-1.26v-.61h9.23v.61c-.75.22-1.12.6-1.12,1.13a2.83,2.83,0,0,0,.36,1.26l9.92,20.07a6.79,6.79,0,0,0,1.11,1.75,2.41,2.41,0,0,0,1.28.62v.61h-9.59v-.61c.84-.14,1.26-.54,1.26-1.18a3,3,0,0,0-.38-1.19Zm-1.63-3.57-4.23-9.28-4.29,9.28Z" transform="translate(-108.89 -258.77)"/><path class="cls-20" d="M374.16,304.91v-22a1.31,1.31,0,0,0-.27-.9,2,2,0,0,0-.95-.5v-.61h14.53A19.53,19.53,0,0,1,394.8,282a10.47,10.47,0,0,1,5.42,5.23,15.13,15.13,0,0,1,1.39,6.7q0,6.74-4.14,10.26a10.44,10.44,0,0,1-4.07,2.13,22.73,22.73,0,0,1-5.93.64H372.94v-.61a2,2,0,0,0,.95-.5A1.3,1.3,0,0,0,374.16,304.91Zm5.68-2.29H387a11.12,11.12,0,0,0,5.14-.94c2.46-1.33,3.68-3.94,3.68-7.8,0-2.8-.66-4.95-2-6.43a6.12,6.12,0,0,0-2.68-1.77,13.44,13.44,0,0,0-4.16-.52h-7.15Z" transform="translate(-108.89 -258.77)"/><path class="cls-20" d="M410.74,304.91V282.85a1.29,1.29,0,0,0-.27-.88,2,2,0,0,0-1-.5v-.61h8.13v.61a1.87,1.87,0,0,0-1,.49,1.33,1.33,0,0,0-.26.89v22.06a1.34,1.34,0,0,0,.27.9,1.92,1.92,0,0,0,.95.49v.61h-8.13v-.61a1.91,1.91,0,0,0,1-.5A1.3,1.3,0,0,0,410.74,304.91Z" transform="translate(-108.89 -258.77)"/><path class="cls-20" d="M432.46,295.48v7.14h16.75a1.3,1.3,0,0,0,.88-.27,2,2,0,0,0,.49-1h.61v6.74h-.61a1.86,1.86,0,0,0-.49-.95,1.3,1.3,0,0,0-.88-.27H425.55v-.61a1.91,1.91,0,0,0,.95-.5,1.3,1.3,0,0,0,.27-.89v-22a1.31,1.31,0,0,0-.27-.9,2,2,0,0,0-.95-.5v-.61h23.2a1.29,1.29,0,0,0,.88-.27,2,2,0,0,0,.5-.95h.61v6.74h-.61a2,2,0,0,0-.5-.95,1.29,1.29,0,0,0-.88-.27H432.46v6.18H443a1.3,1.3,0,0,0,.88-.27,2,2,0,0,0,.49-.95H445v6.58h-.61a2.05,2.05,0,0,0-.49-.94,1.26,1.26,0,0,0-.88-.28Z" transform="translate(-108.89 -258.77)"/><path class="cls-20" d="M481.6,288.56l-6,15.05a5.3,5.3,0,0,0-.51,1.45c0,.58.47,1,1.41,1.24v.61h-8.39v-.61c.85-.17,1.28-.6,1.28-1.3a8.42,8.42,0,0,0-.53-1.7l-7.47-19.21a6.92,6.92,0,0,0-1-1.94,2.32,2.32,0,0,0-1.31-.68v-.61h9.05v.61c-.8.18-1.2.56-1.2,1.13a3.86,3.86,0,0,0,.31,1.26l5.15,13.78L478,283.78a4.28,4.28,0,0,0,.36-1.18c0-.59-.43-1-1.28-1.13v-.61h9.47v.61c-.87.23-1.3.65-1.3,1.24a4.13,4.13,0,0,0,.32,1.15l5.32,13.78L496,284.09a4.6,4.6,0,0,0,.4-1.51c0-.56-.45-.93-1.37-1.11v-.61h9v.61a2.69,2.69,0,0,0-1.32.69,7.73,7.73,0,0,0-.95,1.93l-7.47,19.21a6.65,6.65,0,0,0-.54,1.83c0,.63.46,1,1.36,1.17v.61h-8.5v-.61c.89-.14,1.34-.57,1.34-1.28a6.59,6.59,0,0,0-.59-1.72Z" transform="translate(-108.89 -258.77)"/><path class="cls-21" d="M538.09,298l3.63,5.43-.5.34a1.49,1.49,0,0,0-.88-.49,6.75,6.75,0,0,0-1.93.91,26.38,26.38,0,0,1-5.52,2.56,19,19,0,0,1-5.33.66,16.65,16.65,0,0,1-10.12-2.92,12.27,12.27,0,0,1-3.66-4.22,13.23,13.23,0,0,1-1.55-6.35,12.89,12.89,0,0,1,2.77-8.23q4.15-5.25,12.58-5.25a19.1,19.1,0,0,1,5.3.65,27.38,27.38,0,0,1,5.53,2.56,6.9,6.9,0,0,0,1.93.9,1.51,1.51,0,0,0,.88-.5l.5.34-3.63,5.44-.52-.34a3.44,3.44,0,0,0,0-.51,1.49,1.49,0,0,0-.47-1,8.5,8.5,0,0,0-1.7-1.17,14.45,14.45,0,0,0-7.16-1.9,10.76,10.76,0,0,0-7.12,2.23,9,9,0,0,0,0,13.65,10.71,10.71,0,0,0,7.12,2.23,14.36,14.36,0,0,0,7.16-1.91,8.5,8.5,0,0,0,1.7-1.17,1.5,1.5,0,0,0,.47-1,3.22,3.22,0,0,0,0-.5Z" transform="translate(-108.89 -258.77)"/><path class="cls-21" d="M572,300.27H560.16l-1.76,3.66a3.08,3.08,0,0,0-.36,1.2c0,.56.43.95,1.28,1.17v.61H550.7v-.61a2.28,2.28,0,0,0,1.17-.54,5.32,5.32,0,0,0,.91-1.48l9.58-20a3.78,3.78,0,0,0,.46-1.53q0-.87-1.11-1.26v-.61H571v.61c-.75.22-1.13.6-1.13,1.13a2.83,2.83,0,0,0,.36,1.26l9.93,20.07a7.11,7.11,0,0,0,1.1,1.75,2.45,2.45,0,0,0,1.28.62v.61H572.9v-.61c.85-.14,1.27-.54,1.27-1.18a3.13,3.13,0,0,0-.38-1.19Zm-1.64-3.57-4.22-9.28-4.3,9.28Z" transform="translate(-108.89 -258.77)"/><path class="cls-21" d="M597.3,296.28v8.65a1.26,1.26,0,0,0,.28.88,1.88,1.88,0,0,0,.94.49v.61h-8.13v-.61a2,2,0,0,0,1-.5,1.26,1.26,0,0,0,.27-.87V282.87a1.31,1.31,0,0,0-.27-.9,2,2,0,0,0-1-.5v-.61h16.3a25.31,25.31,0,0,1,4.72.35,8.47,8.47,0,0,1,3.05,1.2,6.11,6.11,0,0,1,2.25,2.69,8.77,8.77,0,0,1,.7,3.51q0,6.38-7.07,7.46l5,7.19a15.65,15.65,0,0,0,2,2.44,2.49,2.49,0,0,0,1.51.6v.61h-9.41v-.61c.65-.1,1-.33,1-.69a4.88,4.88,0,0,0-.9-1.66l-5.28-7.67Zm0-4.29h8.78a21.42,21.42,0,0,0,2.75-.12,4.3,4.3,0,0,0,1.47-.47,3.48,3.48,0,0,0,0-5.65,4.07,4.07,0,0,0-1.46-.49,24.52,24.52,0,0,0-2.76-.1H597.3Z" transform="translate(-108.89 -258.77)"/><path class="cls-21" d="M633.62,295.48v7.14h16.75a1.3,1.3,0,0,0,.88-.27,2,2,0,0,0,.49-1h.61v6.74h-.61a1.86,1.86,0,0,0-.49-.95,1.3,1.3,0,0,0-.88-.27H626.71v-.61a1.91,1.91,0,0,0,.95-.5,1.3,1.3,0,0,0,.27-.89v-22a1.31,1.31,0,0,0-.27-.9,2,2,0,0,0-.95-.5v-.61h23.2a1.3,1.3,0,0,0,.88-.27,2,2,0,0,0,.5-.95h.61v6.74h-.61a2,2,0,0,0-.5-.95,1.3,1.3,0,0,0-.88-.27H633.62v6.18h10.57a1.26,1.26,0,0,0,.87-.27,1.91,1.91,0,0,0,.5-.95h.61v6.58h-.61a2,2,0,0,0-.5-.94,1.21,1.21,0,0,0-.87-.28Z" transform="translate(-108.89 -258.77)"/></svg>