<?xml version="1.0" encoding="UTF-8" standalone="no"?><!-- Generator: Gravit.io --><svg xmlns="http://www.w3.org/2000/svg" xmlns:xlink="http://www.w3.org/1999/xlink" style="isolation:isolate" viewBox="0 0 150 150" width="150pt" height="150pt"><defs><clipPath id="_clipPath_UO9JxLr2IEMFxK2XbKPIjQoyHCFIHQC7"><rect width="150" height="150"/></clipPath></defs><g clip-path="url(#_clipPath_UO9JxLr2IEMFxK2XbKPIjQoyHCFIHQC7)"><line x1="90.022" y1="65.475" x2="90.022" y2="65.475"/><g><ellipse vector-effect="non-scaling-stroke" cx="76.29039141732684" cy="74.99999999999997" rx="33.77587268775157" ry="36.95761700108402" fill="rgb(169,181,202)"/><linearGradient id="_lgradient_0" x1="0.4524019391802554" y1="0.03249133589865433" x2="0.5408224489148161" y2="0.9588971310721255" gradientTransform="matrix(44.531,0,0,58.896,11.457,45.685)" gradientUnits="userSpaceOnUse"><stop offset="0%" stop-opacity="1" style="stop-color:rgb(255,255,255)"/><stop offset="65%" stop-opacity="1" style="stop-color:rgb(203,97,152)"/><stop offset="84%" stop-opacity="1" style="stop-color:rgb(153,74,116)"/></linearGradient><path d=" M 11.457 96.764 L 12.144 104.581 C 12.144 104.581 20.504 100.641 42.779 61.009 C 46.399 55.565 50.87 50.864 55.988 47.126 L 51.69 45.924 L 51.69 45.924 L 51.572 45.924 L 51.572 45.924 L 51.356 45.859 C 50.885 45.795 51.111 45.666 50.669 45.687 C 39.09 46.192 11.457 96.764 11.457 96.764 Z " fill="url(#_lgradient_0)"/><linearGradient id="_lgradient_1" x1="0" y1="0.5" x2="0.20260560403590686" y2="1.4792604195071122" gradientTransform="matrix(0.667,0,0,0.311,55.988,46.987)" gradientUnits="userSpaceOnUse"><stop offset="100%" stop-opacity="1" style="stop-color:rgb(255,255,255)"/><stop offset="100%" stop-opacity="1" style="stop-color:rgb(20,0,0)"/><stop offset="100%" stop-opacity="1" style="stop-color:rgb(28,16,26)"/></linearGradient><path d=" M 55.988 47.126 L 56.655 47.298 L 56.184 46.987 L 56.184 46.987 L 56.184 46.987 L 55.988 47.126 Z " fill="url(#_lgradient_1)"/><linearGradient id="_lgradient_2" x1="0" y1="0.5" x2="0.3580658443531282" y2="1.4336963377392467" gradientTransform="matrix(4.494,0,0,1.181,51.621,45.945)" gradientUnits="userSpaceOnUse"><stop offset="100%" stop-opacity="1" style="stop-color:rgb(255,255,255)"/><stop offset="100%" stop-opacity="1" style="stop-color:rgb(202,95,151)"/><stop offset="100%" stop-opacity="1" style="stop-color:rgb(164,79,124)"/></linearGradient><path d=" M 55.988 47.126 L 56.115 47.019 L 56.115 47.019 L 56.115 47.019 C 55.87 46.911 52.749 46.235 51.621 45.945 L 55.988 47.126 Z " fill="url(#_lgradient_2)"/><line x1="51.542" y1="45.87" x2="51.66" y2="45.87"/><linearGradient id="_lgradient_3" x1="0" y1="0.5" x2="0.15199946804194164" y2="1.4883805753428012" gradientTransform="matrix(76.678,0,0,52.194,50.944,42.901)" gradientUnits="userSpaceOnUse"><stop offset="100%" stop-opacity="1" style="stop-color:rgb(255,255,255)"/><stop offset="100%" stop-opacity="1" style="stop-color:rgb(254,251,252)"/><stop offset="100%" stop-opacity="1" style="stop-color:rgb(202,96,151)"/></linearGradient><path d=" M 51.69 45.902 C 52.818 46.181 55.939 46.858 56.184 46.976 L 56.243 46.976 L 56.184 46.976 C 68.106 52.495 85.554 75.848 99.508 86.381 C 111.911 95.744 123.147 95.454 127.621 94.832 C 101.814 88.926 73.101 40.523 63.916 42.992 L 63.779 42.992 L 50.944 45.548 C 51.326 45.548 50.591 45.623 51.287 45.795 L 51.503 45.859 L 51.503 45.859 L 51.621 45.859 L 51.69 45.902 Z " fill="url(#_lgradient_3)"/><linearGradient id="_lgradient_4" x1="0" y1="0.5" x2="0.7808688094426514" y2="1.1246950475548978" gradientTransform="matrix(0.245,0,0,0.054,63.838,42.96)" gradientUnits="userSpaceOnUse"><stop offset="100%" stop-opacity="1" style="stop-color:rgb(255,255,255)"/><stop offset="100%" stop-opacity="1" style="stop-color:rgb(0,0,0)"/><stop offset="100%" stop-opacity="1" style="stop-color:rgb(0,0,0)"/></linearGradient><path d=" M 63.838 43.014 L 63.946 43.014 C 64.044 43.014 64.083 43.014 64.083 42.96 L 63.838 43.014 Z " fill="url(#_lgradient_4)"/><linearGradient id="_lgradient_5" x1="0" y1="0.5" x2="0.18980080433604551" y2="1.4818226187419956" gradientTransform="matrix(32.382,0,0,17.54,114.502,78.998)" gradientUnits="userSpaceOnUse"><stop offset="100%" stop-opacity="1" style="stop-color:rgb(255,255,255)"/><stop offset="100%" stop-opacity="1" style="stop-color:rgb(250,238,244)"/><stop offset="100%" stop-opacity="1" style="stop-color:rgb(199,95,149)"/></linearGradient><path d=" M 125.296 94.638 C 123.049 94.746 115.159 93.93 114.502 94.016 C 128.24 99.588 140.996 95.025 146.884 89.055 C 146.884 89.055 144.922 74.409 144.539 80.465 C 144.294 84.266 138.504 88.797 134.216 91.643 C 131.521 93.448 128.452 94.479 125.296 94.638 Z " fill="url(#_lgradient_5)"/><line x1="49.982" y1="45.709" x2="50.6" y2="45.623"/><linearGradient id="_lgradient_6" x1="0" y1="0.5" x2="0.08357219442605492" y2="1.496501725196105" gradientTransform="matrix(44.227,0,0,59.092,94.297,47.985)" gradientUnits="userSpaceOnUse"><stop offset="100%" stop-opacity="1" style="stop-color:rgb(153,74,116)"/><stop offset="100%" stop-opacity="1" style="stop-color:rgb(155,75,117)"/><stop offset="100%" stop-opacity="1" style="stop-color:rgb(204,101,154)"/></linearGradient><path d=" M 138.524 55.802 L 137.778 47.985 C 137.778 47.985 129.447 51.979 107.417 91.782 C 103.833 97.248 99.391 101.974 94.297 105.741 L 98.615 106.911 L 98.831 106.911 L 99.007 106.911 C 99.478 106.965 99.252 107.104 99.704 107.072 C 111.214 106.578 138.524 55.802 138.524 55.802 Z " fill="url(#_lgradient_6)"/><linearGradient id="_lgradient_7" x1="0" y1="0.5" x2="0.17097427669147605" y2="1.4852754927987535" gradientTransform="matrix(0.579,0,0,0.322,93.62,105.612)" gradientUnits="userSpaceOnUse"><stop offset="100%" stop-opacity="1" style="stop-color:rgb(153,74,116)"/><stop offset="100%" stop-opacity="1" style="stop-color:rgb(255,178,255)"/><stop offset="100%" stop-opacity="1" style="stop-color:rgb(255,255,255)"/></linearGradient><path d=" M 93.62 105.612 L 94.091 105.934 L 94.091 105.934 L 94.091 105.934 L 94.091 105.934 L 94.199 105.848 L 93.62 105.612 Z " fill="url(#_lgradient_7)"/><linearGradient id="_lgradient_8" x1="0" y1="0.5" x2="0.40836606005828086" y2="1.4128182518949086" gradientTransform="matrix(4.504,0,0,1.16,94.15,105.784)" gradientUnits="userSpaceOnUse"><stop offset="100%" stop-opacity="1" style="stop-color:rgb(153,74,116)"/><stop offset="100%" stop-opacity="1" style="stop-color:rgb(204,97,152)"/><stop offset="100%" stop-opacity="1" style="stop-color:rgb(244,221,233)"/></linearGradient><path d=" M 94.307 105.784 L 94.199 105.87 L 94.199 105.87 L 94.199 105.87 C 94.183 105.875 94.166 105.875 94.15 105.87 C 94.425 105.988 97.516 106.632 98.654 106.943 L 94.307 105.784 Z " fill="url(#_lgradient_8)"/><linearGradient id="_lgradient_9" x1="0" y1="0.5" x2="0.16449243700729996" y2="1.4863783443321328" gradientTransform="matrix(77.011,0,0,51.756,22.349,58.247)" gradientUnits="userSpaceOnUse"><stop offset="100%" stop-opacity="1" style="stop-color:rgb(153,74,116)"/><stop offset="100%" stop-opacity="1" style="stop-color:rgb(154,75,117)"/><stop offset="100%" stop-opacity="1" style="stop-color:rgb(204,100,154)"/></linearGradient><path d=" M 94.052 105.966 M 98.624 106.954 C 97.486 106.686 94.395 106.041 94.12 105.88 L 94.12 105.88 C 82.208 100.512 64.574 77.212 50.522 66.775 C 38.059 57.52 26.824 57.885 22.349 58.54 C 48.196 64.252 77.213 112.441 86.388 109.907 L 86.447 109.907 L 86.525 109.907 L 99.36 107.255 C 98.978 107.255 99.724 107.18 99.017 107.018 L 98.84 107.018 L 98.624 106.954 Z " fill="url(#_lgradient_9)"/><path d=" M 86.486 109.939 L 86.486 109.939 L 86.427 109.939 L 86.29 109.939 L 86.486 109.939 Z " fill="none"/><linearGradient id="_lgradient_10" x1="0" y1="0.5" x2="0.20133184969327625" y2="1.4795230912536386" gradientTransform="matrix(32.382,0,0,17.687,3.116,56.883)" gradientUnits="userSpaceOnUse"><stop offset="100%" stop-opacity="1" style="stop-color:rgb(153,74,116)"/><stop offset="100%" stop-opacity="1" style="stop-color:rgb(158,76,120)"/><stop offset="100%" stop-opacity="1" style="stop-color:rgb(207,110,160)"/></linearGradient><path d=" M 35.498 59.313 C 21.76 53.837 9.004 58.508 3.116 64.52 C 3.116 64.52 5.147 79.145 5.51 73.11 C 5.736 69.309 11.496 64.735 15.755 61.858 C 18.461 60.025 21.546 58.969 24.724 58.787 C 26.961 58.647 34.841 59.41 35.498 59.313 Z " fill="url(#_lgradient_10)"/><line x1="100.322" y1="107.137" x2="99.714" y2="107.233"/></g></g></svg>